<?xml version="1.0" encoding="UTF-8"?>
<svg version="1.1" xmlns="http://www.w3.org/2000/svg" width="317" height="317">
<path d="M0 0 C0.75792847 -0.00191345 1.51585693 -0.0038269 2.29675293 -0.00579834 C3.89363946 -0.00715477 5.49053722 -0.0034963 7.08740234 0.00488281 C9.52336537 0.01559034 11.958591 0.00496943 14.39453125 -0.0078125 C15.95052245 -0.00649081 17.5065132 -0.00392822 19.0625 0 C19.78659058 -0.00404846 20.51068115 -0.00809692 21.25671387 -0.01226807 C25.32855857 0.02524996 28.33062232 0.60997228 32.03125 2.265625 C34.07586947 2.20596767 36.11916079 2.07581493 38.15625 1.890625 C46.22136892 1.79094375 50.15415523 5.10584554 56.03125 10.265625 C57.10227223 11.14583102 58.17661374 12.0220107 59.25390625 12.89453125 C80.82908599 30.52195249 80.82908599 30.52195249 82.59375 38.953125 C81.26192159 46.79611455 76.25681484 52.08720142 70.59375 57.328125 C67.3530482 60.69903357 65.74311489 62.91778849 65.71875 67.56640625 C65.88484526 70.56412167 66.29764936 73.48050231 66.75390625 76.4453125 C67.05581689 80.60402525 66.55441987 82.04052065 64.03125 85.265625 C60.518683 84.98857746 58.59793414 84.83006928 56.0546875 82.296875 C51.47781221 75.26887692 47.51453954 68.59822215 46.03125 60.265625 C45.77730469 61.30203125 45.52335937 62.3384375 45.26171875 63.40625 C44.91454853 64.77616493 44.56686521 66.1459499 44.21875 67.515625 C44.05310547 68.19753906 43.88746094 68.87945312 43.71679688 69.58203125 C42.94939676 72.56475623 42.27884735 74.94256942 40.390625 77.40625 C37.98437236 80.69756108 39.01890441 84.10408653 39.45703125 87.9765625 C41.54597707 99.94181679 46.98488485 110.24694521 53.59375 120.265625 C67.60701719 141.56820176 62.77276393 165.29196061 60.03125 189.265625 C61.09472656 188.94207031 62.15820312 188.61851562 63.25390625 188.28515625 C70.56584963 186.31161207 77.30305935 186.56365111 84.03125 190.265625 C87.78421242 193.44748444 90.63111443 196.44522721 91.33764648 201.42529297 C91.67053507 213.4268687 91.41175699 223.31515655 86.03125 234.265625 C85.72541992 234.89774902 85.41958984 235.52987305 85.10449219 236.18115234 C79.85030616 246.83763943 73.06690712 255.56372897 65.03125 264.265625 C65.95357422 264.70261719 65.95357422 264.70261719 66.89453125 265.1484375 C70.63477851 267.04540501 73.49451033 268.60259365 76.15625 271.890625 C77.82743006 278.33660523 76.98504752 284.35802996 74.03125 290.265625 C70.40125 290.265625 66.77125 290.265625 63.03125 290.265625 C63.03125 290.925625 63.03125 291.585625 63.03125 292.265625 C58.29905238 292.36489653 53.56746787 292.43728133 48.83447266 292.48535156 C47.22629226 292.50540127 45.61818417 292.53264864 44.01025391 292.56738281 C41.6915498 292.61619764 39.37381375 292.63865928 37.0546875 292.65625 C36.34194672 292.67689514 35.62920593 292.69754028 34.89486694 292.71881104 C29.79555569 292.72107582 26.96584966 291.45052894 23.03125 288.265625 C20.45583758 284.70910308 20.70435222 281.97734057 20.03125 277.265625 C12.44125 277.265625 4.85125 277.265625 -2.96875 277.265625 C-2.96875 279.575625 -2.96875 281.885625 -2.96875 284.265625 C-5.07422975 288.25099739 -6.70990338 290.7347423 -10.96875 292.265625 C-13.61586601 292.43373603 -16.15306534 292.49868096 -18.796875 292.4609375 C-19.54588074 292.4581076 -20.29488647 292.45527771 -21.06658936 292.45236206 C-23.45080776 292.4411976 -25.83464579 292.41610031 -28.21875 292.390625 C-29.83853623 292.38059035 -31.45832836 292.37146535 -33.078125 292.36328125 C-37.04181246 292.34127055 -41.00521681 292.30676675 -44.96875 292.265625 C-44.96875 291.605625 -44.96875 290.945625 -44.96875 290.265625 C-49.58875 290.265625 -54.20875 290.265625 -58.96875 290.265625 C-62.03795468 284.12721565 -62.90390413 280.86544837 -61.96875 274.265625 C-59.41444906 268.51844788 -55.53259711 266.56138716 -49.96875 264.265625 C-50.89494141 263.31816406 -50.89494141 263.31816406 -51.83984375 262.3515625 C-62.2809563 251.32244208 -69.65391486 239.53460611 -74.96875 225.265625 C-75.23558594 224.5746875 -75.50242187 223.88375 -75.77734375 223.171875 C-78.20817785 215.52732087 -78.68820007 203.85367131 -75.28125 196.515625 C-71.61560134 191.36390256 -68.1688609 188.66942369 -61.96875 187.265625 C-54.20328674 186.36330004 -48.08306493 188.23595477 -40.96875 191.265625 C-41.05439209 190.68184082 -41.14003418 190.09805664 -41.22827148 189.49658203 C-41.62325143 186.7949299 -42.01476447 184.09278562 -42.40625 181.390625 C-42.54095703 180.4728125 -42.67566406 179.555 -42.81445312 178.609375 C-46.04538551 156.22925801 -46.91843129 136.41012862 -33.75390625 117 C-25.97985353 105.5161212 -19.15651814 91.59656376 -20.96875 77.265625 C-21.8583138 74.15619518 -22.88552554 71.13480157 -23.99609375 68.09765625 C-24.89248948 65.48766869 -25.49725729 62.98043038 -25.96875 60.265625 C-26.29746094 61.28269531 -26.29746094 61.28269531 -26.6328125 62.3203125 C-29.49546919 70.7220935 -33.01841828 79.40633372 -39.96875 85.265625 C-43.21875 85.015625 -43.21875 85.015625 -45.96875 84.265625 C-46.87710545 81.54055866 -47.10379466 79.94308584 -47.09375 77.140625 C-47.10019531 76.34011719 -47.10664062 75.53960937 -47.11328125 74.71484375 C-46.96875 72.265625 -46.96875 72.265625 -46.35546875 70.09765625 C-45.65724908 67.49001951 -45.4372393 65.93593473 -45.96875 63.265625 C-48.87190637 59.38104762 -52.20787885 56.05916028 -55.63623047 52.64208984 C-59.52225097 48.62791183 -61.60079163 44.86887216 -62.84375 39.453125 C-62.34168038 31.95161416 -54.66954478 25.6358326 -49.40625 20.890625 C-47.93628192 19.67111801 -46.45498902 18.46524872 -44.96875 17.265625 C-43.66208864 16.18440508 -42.35617296 15.10228371 -41.05078125 14.01953125 C-39.60748823 12.8298583 -38.16346884 11.64106606 -36.71875 10.453125 C-36.02064209 9.8770752 -35.32253418 9.30102539 -34.60327148 8.70751953 C-33.60082397 7.89130127 -33.60082397 7.89130127 -32.578125 7.05859375 C-31.97967773 6.5689917 -31.38123047 6.07938965 -30.76464844 5.57495117 C-25.76804187 1.93210166 -21.98744292 2.14603186 -15.94140625 2.390625 C-13.02048363 2.45345317 -13.02048363 2.45345317 -10.78100586 1.27441406 C-7.16834346 -0.02149019 -3.78726011 -0.02117495 0 0 Z " fill="#565A65" transform="translate(151.96875,12.734375)"/>
<path d="M0 0 C0.75792847 -0.00191345 1.51585693 -0.0038269 2.29675293 -0.00579834 C3.89363946 -0.00715477 5.49053722 -0.0034963 7.08740234 0.00488281 C9.52336537 0.01559034 11.958591 0.00496943 14.39453125 -0.0078125 C15.95052245 -0.00649081 17.5065132 -0.00392822 19.0625 0 C19.78659058 -0.00404846 20.51068115 -0.00809692 21.25671387 -0.01226807 C25.32855857 0.02524996 28.33062232 0.60997228 32.03125 2.265625 C34.07586947 2.20596767 36.11916079 2.07581493 38.15625 1.890625 C46.22136892 1.79094375 50.15415523 5.10584554 56.03125 10.265625 C57.10227223 11.14583102 58.17661374 12.0220107 59.25390625 12.89453125 C80.82908599 30.52195249 80.82908599 30.52195249 82.59375 38.953125 C81.26192159 46.79611455 76.25681484 52.08720142 70.59375 57.328125 C67.3530482 60.69903357 65.74311489 62.91778849 65.71875 67.56640625 C65.88484526 70.56412167 66.29764936 73.48050231 66.75390625 76.4453125 C67.05581689 80.60402525 66.55441987 82.04052065 64.03125 85.265625 C60.518683 84.98857746 58.59793414 84.83006928 56.0546875 82.296875 C51.47781221 75.26887692 47.51453954 68.59822215 46.03125 60.265625 C45.77730469 61.30203125 45.52335937 62.3384375 45.26171875 63.40625 C44.91454853 64.77616493 44.56686521 66.1459499 44.21875 67.515625 C44.05310547 68.19753906 43.88746094 68.87945312 43.71679688 69.58203125 C42.94939676 72.56475623 42.27884735 74.94256942 40.390625 77.40625 C37.98437236 80.69756108 39.01890441 84.10408653 39.45703125 87.9765625 C41.54597707 99.94181679 46.98488485 110.24694521 53.59375 120.265625 C67.60701719 141.56820176 62.77276393 165.29196061 60.03125 189.265625 C61.09472656 188.94207031 62.15820312 188.61851562 63.25390625 188.28515625 C70.56584963 186.31161207 77.30305935 186.56365111 84.03125 190.265625 C87.78421242 193.44748444 90.63111443 196.44522721 91.33764648 201.42529297 C91.67053507 213.4268687 91.41175699 223.31515655 86.03125 234.265625 C85.72541992 234.89774902 85.41958984 235.52987305 85.10449219 236.18115234 C79.85030616 246.83763943 73.06690712 255.56372897 65.03125 264.265625 C65.95357422 264.70261719 65.95357422 264.70261719 66.89453125 265.1484375 C70.63477851 267.04540501 73.49451033 268.60259365 76.15625 271.890625 C77.82743006 278.33660523 76.98504752 284.35802996 74.03125 290.265625 C70.40125 290.265625 66.77125 290.265625 63.03125 290.265625 C63.03125 290.925625 63.03125 291.585625 63.03125 292.265625 C58.29905238 292.36489653 53.56746787 292.43728133 48.83447266 292.48535156 C47.22629226 292.50540127 45.61818417 292.53264864 44.01025391 292.56738281 C41.6915498 292.61619764 39.37381375 292.63865928 37.0546875 292.65625 C36.34194672 292.67689514 35.62920593 292.69754028 34.89486694 292.71881104 C29.79555569 292.72107582 26.96584966 291.45052894 23.03125 288.265625 C20.45583758 284.70910308 20.70435222 281.97734057 20.03125 277.265625 C12.44125 277.265625 4.85125 277.265625 -2.96875 277.265625 C-2.96875 279.575625 -2.96875 281.885625 -2.96875 284.265625 C-5.07422975 288.25099739 -6.70990338 290.7347423 -10.96875 292.265625 C-13.61586601 292.43373603 -16.15306534 292.49868096 -18.796875 292.4609375 C-19.54588074 292.4581076 -20.29488647 292.45527771 -21.06658936 292.45236206 C-23.45080776 292.4411976 -25.83464579 292.41610031 -28.21875 292.390625 C-29.83853623 292.38059035 -31.45832836 292.37146535 -33.078125 292.36328125 C-37.04181246 292.34127055 -41.00521681 292.30676675 -44.96875 292.265625 C-44.96875 291.605625 -44.96875 290.945625 -44.96875 290.265625 C-49.58875 290.265625 -54.20875 290.265625 -58.96875 290.265625 C-62.03795468 284.12721565 -62.90390413 280.86544837 -61.96875 274.265625 C-59.41444906 268.51844788 -55.53259711 266.56138716 -49.96875 264.265625 C-50.89494141 263.31816406 -50.89494141 263.31816406 -51.83984375 262.3515625 C-62.2809563 251.32244208 -69.65391486 239.53460611 -74.96875 225.265625 C-75.23558594 224.5746875 -75.50242187 223.88375 -75.77734375 223.171875 C-78.20817785 215.52732087 -78.68820007 203.85367131 -75.28125 196.515625 C-71.61560134 191.36390256 -68.1688609 188.66942369 -61.96875 187.265625 C-54.20328674 186.36330004 -48.08306493 188.23595477 -40.96875 191.265625 C-41.05439209 190.68184082 -41.14003418 190.09805664 -41.22827148 189.49658203 C-41.62325143 186.7949299 -42.01476447 184.09278562 -42.40625 181.390625 C-42.54095703 180.4728125 -42.67566406 179.555 -42.81445312 178.609375 C-46.04538551 156.22925801 -46.91843129 136.41012862 -33.75390625 117 C-25.97985353 105.5161212 -19.15651814 91.59656376 -20.96875 77.265625 C-21.8583138 74.15619518 -22.88552554 71.13480157 -23.99609375 68.09765625 C-24.89248948 65.48766869 -25.49725729 62.98043038 -25.96875 60.265625 C-26.29746094 61.28269531 -26.29746094 61.28269531 -26.6328125 62.3203125 C-29.49546919 70.7220935 -33.01841828 79.40633372 -39.96875 85.265625 C-43.21875 85.015625 -43.21875 85.015625 -45.96875 84.265625 C-46.87710545 81.54055866 -47.10379466 79.94308584 -47.09375 77.140625 C-47.10019531 76.34011719 -47.10664062 75.53960937 -47.11328125 74.71484375 C-46.96875 72.265625 -46.96875 72.265625 -46.35546875 70.09765625 C-45.65724908 67.49001951 -45.4372393 65.93593473 -45.96875 63.265625 C-48.87190637 59.38104762 -52.20787885 56.05916028 -55.63623047 52.64208984 C-59.52225097 48.62791183 -61.60079163 44.86887216 -62.84375 39.453125 C-62.34168038 31.95161416 -54.66954478 25.6358326 -49.40625 20.890625 C-47.93628192 19.67111801 -46.45498902 18.46524872 -44.96875 17.265625 C-43.66208864 16.18440508 -42.35617296 15.10228371 -41.05078125 14.01953125 C-39.60748823 12.8298583 -38.16346884 11.64106606 -36.71875 10.453125 C-36.02064209 9.8770752 -35.32253418 9.30102539 -34.60327148 8.70751953 C-33.60082397 7.89130127 -33.60082397 7.89130127 -32.578125 7.05859375 C-31.97967773 6.5689917 -31.38123047 6.07938965 -30.76464844 5.57495117 C-25.76804187 1.93210166 -21.98744292 2.14603186 -15.94140625 2.390625 C-13.02048363 2.45345317 -13.02048363 2.45345317 -10.78100586 1.27441406 C-7.16834346 -0.02149019 -3.78726011 -0.02117495 0 0 Z M-11.96875 6.265625 C-13.76071421 6.10218852 -15.55232725 5.93489329 -17.34375 5.765625 C-24.85140763 5.73884382 -28.8205689 8.96150249 -34.30029297 13.79736328 C-36.12331373 15.40164289 -37.9822453 16.95698052 -39.84765625 18.51171875 C-50.80625406 26.99548299 -50.80625406 26.99548299 -58.02734375 38.3671875 C-57.89932092 44.70005035 -53.0171546 50.1594171 -48.75390625 54.54296875 C-47.68462891 55.55037109 -47.68462891 55.55037109 -46.59375 56.578125 C-44.05643331 58.98783969 -43.05500451 60.01193525 -41.90625 63.390625 C-41.97276738 66.45042448 -42.43698088 69.25226665 -42.96875 72.265625 C-43.05748193 75.26772189 -43.02880022 78.26311399 -42.96875 81.265625 C-38.05078758 79.62630419 -36.34027465 75.11509244 -33.9765625 70.734375 C-30.13426111 62.83933457 -26.96875 52.11142233 -26.96875 43.265625 C-26.30875 43.265625 -25.64875 43.265625 -24.96875 43.265625 C-24.78699219 44.19761719 -24.60523438 45.12960938 -24.41796875 46.08984375 C-23.15154881 52.5128659 -21.86470305 58.93185333 -20.46875 65.328125 C-20.2521875 66.32972656 -20.035625 67.33132812 -19.8125 68.36328125 C-19.0749751 71.35259024 -19.0749751 71.35259024 -17.30859375 74.05859375 C-15.43934162 78.53280949 -16.15485541 81.84290285 -17.03125 86.515625 C-17.25723877 87.79240112 -17.25723877 87.79240112 -17.48779297 89.0949707 C-20.32352282 104.25030683 -28.61009953 117.16393736 -36.77734375 130.0546875 C-40.45552357 136.88042447 -40.31481913 143.39490537 -40.28125 150.953125 C-40.27923584 152.17668701 -40.27722168 153.40024902 -40.27514648 154.66088867 C-40.11139797 169.98559262 -38.19390494 185.12160931 -35.96875 200.265625 C-37.59635417 199.06119792 -39.22395833 197.85677083 -40.8515625 196.65234375 C-46.21615119 193.13863713 -50.56177852 191.74153864 -56.96875 191.765625 C-57.65453125 191.73726562 -58.3403125 191.70890625 -59.046875 191.6796875 C-62.86745391 191.66510514 -65.38954755 192.20932646 -68.34375 194.546875 C-72.72631832 199.08596361 -73.2462985 201.70701798 -73.21875 208.015625 C-73.1197245 213.36850318 -72.80245061 218.21413245 -70.96875 223.265625 C-70.576875 224.38582031 -70.185 225.50601563 -69.78125 226.66015625 C-63.79530412 243.04074467 -53.3632545 255.22980391 -40.96875 267.265625 C-41.69320312 267.35199219 -42.41765625 267.43835938 -43.1640625 267.52734375 C-49.49807541 268.44788696 -53.90943694 269.10920031 -57.96875 274.265625 C-58.63042485 278.09010563 -58.72503267 281.75305966 -56.96875 285.265625 C-56.30875 285.265625 -55.64875 285.265625 -54.96875 285.265625 C-54.63875 281.965625 -54.30875 278.665625 -53.96875 275.265625 C-53.63875 275.265625 -53.30875 275.265625 -52.96875 275.265625 C-52.96875 278.565625 -52.96875 281.865625 -52.96875 285.265625 C-51.97875 285.265625 -50.98875 285.265625 -49.96875 285.265625 C-49.30875 281.965625 -48.64875 278.665625 -47.96875 275.265625 C-47.96875 278.565625 -47.96875 281.865625 -47.96875 285.265625 C-45.65875 285.265625 -43.34875 285.265625 -40.96875 285.265625 C-40.72125 284.1725 -40.47375 283.079375 -40.21875 281.953125 C-38.89126822 278.03705374 -38.42839198 277.23569891 -34.96875 275.265625 C-32.390625 274.97265625 -32.390625 274.97265625 -29.71875 275.078125 C-28.15125 275.14 -26.58375 275.201875 -24.96875 275.265625 C-24.96875 271.635625 -24.96875 268.005625 -24.96875 264.265625 C-24.30875 268.885625 -23.64875 273.505625 -22.96875 278.265625 C-24.28875 277.605625 -25.60875 276.945625 -26.96875 276.265625 C-30.06397276 275.69889407 -32.88157189 275.61986664 -35.96875 276.265625 C-39.03482416 279.40648145 -39.89511482 281.27155009 -40.21875 285.640625 C-40.13625 286.506875 -40.05375 287.373125 -39.96875 288.265625 C-39.30875 288.265625 -38.64875 288.265625 -37.96875 288.265625 C-37.30875 286.285625 -36.64875 284.305625 -35.96875 282.265625 C-35.96875 284.245625 -35.96875 286.225625 -35.96875 288.265625 C-35.30875 288.265625 -34.64875 288.265625 -33.96875 288.265625 C-33.30875 285.955625 -32.64875 283.645625 -31.96875 281.265625 C-31.96875 283.265625 -31.96875 285.265625 -31.96875 287.265625 C-27.66409759 287.56462511 -23.38984854 287.77334025 -19.07421875 287.6875 C-18.36934326 287.67557617 -17.66446777 287.66365234 -16.93823242 287.65136719 C-14.40701241 287.15560326 -13.34775132 286.3320329 -11.59375 284.453125 C-10.60917043 282.4896593 -10.60917043 282.4896593 -9.96875 280.265625 C-9.70634521 279.47220703 -9.44394043 278.67878906 -9.17358398 277.86132812 C-7.16355615 271.01488952 -6.51338996 264.69048108 -6.40625 257.578125 C-6.13358297 248.01261078 -5.48265589 238.71912624 -3.96875 229.265625 C-3.82566406 228.35425781 -3.68257813 227.44289062 -3.53515625 226.50390625 C-2.55100473 221.23477641 -0.83744504 217.13432004 3.03125 213.265625 C4.9875093 213.16635214 6.94747909 213.13592771 8.90625 213.140625 C9.97617188 213.13804687 11.04609375 213.13546875 12.1484375 213.1328125 C15.03125 213.265625 15.03125 213.265625 18.03125 214.265625 C20.93874776 219.90477022 21.80485893 226.60808962 22.65625 232.828125 C22.78104736 233.71201904 22.90584473 234.59591309 23.03442383 235.5065918 C24.45978165 246.37695509 24.77246373 257.31510538 25.03125 268.265625 C29.57381952 265.23724532 30.87689379 261.24025722 32.09375 256.078125 C33.03125 252.265625 33.03125 252.265625 35.03125 249.265625 C35.12664595 247.37173489 35.16110604 245.47440994 35.15625 243.578125 C35.46823511 238.60436242 36.2706662 236.32054621 39.90625 232.890625 C40.62554687 232.27445313 41.34484375 231.65828125 42.0859375 231.0234375 C44.68297813 228.67671404 45.74537992 226.4803002 47.03125 223.265625 C47.69125 223.265625 48.35125 223.265625 49.03125 223.265625 C50.02125 217.985625 51.01125 212.705625 52.03125 207.265625 C51.13296291 215.18688387 50.09116751 223.04902776 48.78515625 230.9140625 C48.67321426 231.5911174 48.56127228 232.2681723 48.44593811 232.96574402 C47.87682809 236.39897771 47.29850733 239.83034986 46.70825195 243.26000977 C45.57645243 250.02755366 44.74500402 256.40325419 45.03125 263.265625 C50.17843846 261.30348756 55.06308049 259.1762848 59.03125 255.265625 C59.80617392 252.76266219 59.97297261 250.73322476 59.93359375 248.12109375 C59.96582031 247.50878906 59.99804688 246.89648438 60.03125 246.265625 C60.69125 245.935625 61.35125 245.605625 62.03125 245.265625 C63.02125 247.740625 63.02125 247.740625 64.03125 250.265625 C67.87093859 248.8091914 69.34131462 246.98348283 71.03125 243.265625 C71.28261033 240.05646329 71.28261033 240.05646329 71.03125 237.265625 C72.02125 236.935625 73.01125 236.605625 74.03125 236.265625 C74.36125 234.285625 74.69125 232.305625 75.03125 230.265625 C74.04125 229.935625 73.05125 229.605625 72.03125 229.265625 C72.32421875 227.27994792 72.6171875 225.29427083 72.91015625 223.30859375 C73.17029799 221.0630908 73.17029799 221.0630908 72.03125 218.265625 C74.01125 217.605625 75.99125 216.945625 78.03125 216.265625 C78.03125 214.615625 78.03125 212.965625 78.03125 211.265625 C76.71125 211.265625 75.39125 211.265625 74.03125 211.265625 C71.78125 210.265625 71.78125 210.265625 70.03125 209.265625 C70.28125 207.390625 70.28125 207.390625 71.03125 205.265625 C73.02348951 204.02906254 75.04456101 203.26030059 77.21875 202.390625 C79.23202462 201.40283228 79.23202462 201.40283228 79.78125 199.140625 C79.86375 198.521875 79.94625 197.903125 80.03125 197.265625 C77.30729303 194.67837219 75.73358861 193.34474922 71.9453125 192.91796875 C64.80087607 193.53737951 60.34102105 194.3178838 55.03125 199.265625 C54.70125 199.925625 54.37125 200.585625 54.03125 201.265625 C54.32130697 198.74459793 54.61329889 196.22381624 54.90625 193.703125 C54.98488281 193.01798828 55.06351563 192.33285156 55.14453125 191.62695312 C55.56317465 188.03628086 56.00297472 184.45661053 56.5324707 180.88012695 C57.86231579 171.73901511 58.42745645 162.82329135 58.46875 153.578125 C58.51805664 151.61262695 58.51805664 151.61262695 58.56835938 149.60742188 C58.63366689 137.70364215 55.22019978 128.89503638 48.53125 119.203125 C44.68727587 113.46261006 41.58717258 107.70574489 39.03125 101.265625 C38.72445312 100.54375 38.41765625 99.821875 38.1015625 99.078125 C35.57689455 92.53803278 34.4502268 85.24608679 35.03125 78.265625 C36.33595025 76.24682956 37.6712013 74.2475547 39.03125 72.265625 C39.70748583 69.60277106 40.21338675 67.15204216 40.59375 64.453125 C40.83028611 62.95826316 41.06727985 61.46347367 41.3046875 59.96875 C41.42166992 59.20111328 41.53865234 58.43347656 41.65917969 57.64257812 C42.28385087 53.65189662 43.00598304 49.67883697 43.71875 45.703125 C43.97310051 44.26440139 44.22704862 42.82560653 44.48046875 41.38671875 C44.66222656 40.35675781 44.84398437 39.32679687 45.03125 38.265625 C45.18158691 38.99040039 45.33192383 39.71517578 45.48681641 40.46191406 C49.57446461 62.87675237 49.57446461 62.87675237 62.03125 81.265625 C61.89203125 79.97269531 61.7528125 78.67976563 61.609375 77.34765625 C60.5139383 62.61743813 60.5139383 62.61743813 64.5625 57.2890625 C67.03894142 54.54033612 69.79247132 52.15618285 72.57714844 49.72851562 C75.70768391 46.57905818 77.89355686 42.84909615 78.28125 38.390625 C75.05898586 30.33496466 67.61102759 24.84407485 60.96875 19.61328125 C58.88885924 17.95102813 56.89099152 16.27914831 54.90625 14.51171875 C54.38450195 14.054021 53.86275391 13.59632324 53.32519531 13.12475586 C51.86093048 11.83576751 50.40672058 10.5353832 48.953125 9.234375 C44.17624171 6.01572636 39.20554924 6.12625104 33.59375 6.203125 C32.72878906 6.21214844 31.86382812 6.22117187 30.97265625 6.23046875 C30.33199219 6.24207031 29.69132812 6.25367188 29.03125 6.265625 C28.53625 4.780625 28.53625 4.780625 28.03125 3.265625 C23.90531157 3.2157763 19.77949248 3.17969543 15.65332031 3.15576172 C14.25289858 3.14577252 12.85249732 3.13217646 11.45214844 3.11474609 C-0.58772495 2.79123281 -0.58772495 2.79123281 -11.96875 6.265625 Z " fill="#030404" transform="translate(151.96875,12.734375)"/>
<path d="M0 0 C1.01938156 0.00212242 1.01938156 0.00212242 2.05935669 0.00428772 C4.20888862 0.00984107 6.35831258 0.02238456 8.5078125 0.03515625 C9.97395682 0.04017729 11.44010279 0.04473914 12.90625 0.04882812 C16.48180533 0.05979514 20.05729836 0.07702706 23.6328125 0.09765625 C23.6328125 1.08765625 23.6328125 2.07765625 23.6328125 3.09765625 C25.03080078 2.92363281 25.03080078 2.92363281 26.45703125 2.74609375 C35.31126511 2.11940379 40.23739551 3.12217774 47.04956055 8.89453125 C48.6013289 10.27152377 50.11790966 11.68032849 51.6328125 13.09765625 C52.57511719 13.93167969 53.51742187 14.76570313 54.48828125 15.625 C56.14552746 17.0962038 57.78975466 18.58235257 59.4140625 20.08984375 C60.95999896 21.48880738 62.56247958 22.82669609 64.203125 24.11328125 C67.72359463 26.98852011 70.41957027 30.12001113 72.6328125 34.09765625 C73.04891577 39.09089546 70.43861885 42.14055331 67.53125 45.94140625 C65.6328125 48.09765625 65.6328125 48.09765625 63.234375 50.12890625 C58.7666364 54.13154904 56.4513543 57.13486124 56.05859375 63.18359375 C55.97633969 68.17013536 56.20977616 73.129691 56.6328125 78.09765625 C44.63656644 66.66784339 42.86785293 50.69381042 39.6328125 35.09765625 C39.49705811 35.9697876 39.36130371 36.84191895 39.22143555 37.74047852 C38.70875975 41.00507127 38.18781251 44.26812662 37.66137695 47.53051758 C37.43609127 48.93722269 37.21402338 50.34444735 36.99536133 51.75219727 C36.67873878 53.78680367 36.35022119 55.81920083 36.01953125 57.8515625 C35.82576904 59.07174072 35.63200684 60.29191895 35.43237305 61.54907227 C34.29384667 66.60204353 32.52427172 70.76046743 29.6328125 75.09765625 C29.25013809 84.5624699 31.47530281 93.25662912 34.6328125 102.09765625 C33.6428125 102.09765625 32.6528125 102.09765625 31.6328125 102.09765625 C28.59370904 96.15158425 27.98054678 90.72858919 27.6328125 84.09765625 C26.6428125 84.09765625 25.6528125 84.09765625 24.6328125 84.09765625 C24.3440625 84.71640625 24.0553125 85.33515625 23.7578125 85.97265625 C22.6328125 88.09765625 22.6328125 88.09765625 20.6328125 90.09765625 C18.37006462 89.74410189 16.68192398 89.12221199 14.6328125 88.09765625 C14.1378125 89.58265625 14.1378125 89.58265625 13.6328125 91.09765625 C10.36199779 91.12668054 7.0912162 91.14446309 3.8203125 91.16015625 C2.89154297 91.16853516 1.96277344 91.17691406 1.00585938 91.18554688 C0.11318359 91.18876953 -0.77949219 91.19199219 -1.69921875 91.1953125 C-2.93248901 91.20316772 -2.93248901 91.20316772 -4.19067383 91.21118164 C-6.3671875 91.09765625 -6.3671875 91.09765625 -9.3671875 90.09765625 C-10.1096875 90.01515625 -10.8521875 89.93265625 -11.6171875 89.84765625 C-15.49226724 88.79081632 -18.23265747 86.54566097 -21.3671875 84.09765625 C-21.2846875 85.00515625 -21.2021875 85.91265625 -21.1171875 86.84765625 C-21.07019253 92.54579622 -23.4267724 97.82215269 -25.3671875 103.09765625 C-26.3571875 102.10765625 -26.3571875 102.10765625 -27.3671875 101.09765625 C-26.91214844 99.97359375 -26.45710938 98.84953125 -25.98828125 97.69140625 C-24.25942721 93.06211176 -23.25325006 88.46096883 -22.4296875 83.59765625 C-22.26662109 82.79457031 -22.10355469 81.99148437 -21.93554688 81.1640625 C-21.02248649 75.77307441 -21.57936918 72.96920753 -24.30102539 68.28564453 C-26.42631567 63.92410308 -26.83962643 59.04317865 -27.5546875 54.28515625 C-27.87973856 52.23669722 -28.20648397 50.18850613 -28.53515625 48.140625 C-28.67203857 47.2436792 -28.8089209 46.3467334 -28.94995117 45.42260742 C-29.33579086 42.95237707 -29.33579086 42.95237707 -30.3671875 40.09765625 C-31.0271875 40.09765625 -31.6871875 40.09765625 -32.3671875 40.09765625 C-32.46515625 40.81308594 -32.563125 41.52851562 -32.6640625 42.265625 C-34.55028195 54.83500116 -37.6654817 66.73341178 -45.3671875 77.09765625 C-46.8521875 77.59265625 -46.8521875 77.59265625 -48.3671875 78.09765625 C-48.44602586 73.20967784 -48.32349546 68.83937402 -47.4296875 64.03515625 C-47.11142795 61.07988905 -47.04012123 59.64417343 -48.578125 57.07421875 C-49.76372197 55.75986917 -50.98941698 54.48093767 -52.24609375 53.234375 C-54.66410349 50.79855304 -56.68979016 48.22279445 -58.7421875 45.47265625 C-59.40992187 44.59351563 -60.07765625 43.714375 -60.765625 42.80859375 C-62.56124783 39.76917364 -63.20092262 37.61772122 -63.3671875 34.09765625 C-60.2247431 26.37312543 -51.59525241 20.39440582 -45.3671875 15.09765625 C-44.73393555 14.54867676 -44.10068359 13.99969727 -43.44824219 13.43408203 C-30.47268142 2.32895819 -30.47268142 2.32895819 -22.6171875 2.47265625 C-21.69421875 2.60414062 -20.77125 2.735625 -19.8203125 2.87109375 C-16.90539969 3.14030544 -15.90209572 2.46186258 -13.3671875 1.09765625 C-8.87026838 0.14896519 -4.58814978 -0.0189593 0 0 Z " fill="#555A65" transform="translate(157.3671875,15.90234375)"/>
<path d="M0 0 C0.85980469 0.47050781 1.71960938 0.94101563 2.60546875 1.42578125 C17.68421854 9.46907323 35.54828932 13.47578739 52.5 8.875 C58.20814352 6.75746289 63.62998395 3.85109099 69 1 C68.72265625 2.890625 68.72265625 2.890625 68 5 C64.4375 6.75 64.4375 6.75 61 8 C60.66407492 10.2895393 60.66407492 10.2895393 61 13 C61.680625 13.845625 62.36125 14.69125 63.0625 15.5625 C65 18 65 18 64.875 20.125 C64 22 64 22 62 25 C61.33022506 27.32680295 61.33022506 27.32680295 62 30 C63.36625171 31.81427582 64.87429029 33.44913116 66.40234375 35.12890625 C71.26164589 40.81987379 72.44785832 46.19144367 72.53125 53.58203125 C72.78118716 56.17242544 72.78118716 56.17242544 75.03125 57.82421875 C76.00578125 58.40623047 76.00578125 58.40623047 77 59 C76.48918339 63.78890574 75.16456098 66.82111869 72.5 70.8125 C71.8709375 71.76769531 71.241875 72.72289062 70.59375 73.70703125 C69 76 69 76 68 77 C67.48187484 83.21750197 67.94851338 85.16435468 72 90 C71.69673056 91.67239844 71.35708724 93.33826067 71 95 C71.1031462 97.27193087 71.22986345 99.5428647 71.375 101.8125 C71.44042572 107.00839259 71.11170377 109.82385629 67.625 113.75 C66.4463694 114.86557629 65.24163653 115.95500274 64 117 C60.88652277 120.11347723 61.60526697 123.70193826 61.44140625 127.95703125 C60.95213352 131.3299822 59.85154683 133.17769332 58 136 C57.32215008 138.33010909 56.65583207 140.66359824 56 143 C53.42857143 148.78571429 53.42857143 148.78571429 51 150 C50.98541748 149.38294189 50.97083496 148.76588379 50.95581055 148.13012695 C50.66160712 136.88074435 50.1995705 125.71460646 48.625 114.5625 C48.51115967 113.73081299 48.39731934 112.89912598 48.2800293 112.04223633 C47.46131476 106.64330823 46.52187218 100.89121734 44 96 C39.09464665 94.36488222 34.11332685 94.37055866 29 95 C24.44361362 98.79698865 22.95150396 104.4159021 21.9375 110.125 C21.78152344 110.97320312 21.62554687 111.82140625 21.46484375 112.6953125 C20.20452613 121.65521756 19.77497638 130.65309128 19.4375 139.6875 C19.39431641 140.78255859 19.35113281 141.87761719 19.30664062 143.00585938 C19.20191731 145.67048597 19.09974221 148.33518311 19 151 C14.60534445 146.76810947 12.34298489 142.75040126 10.9375 136.8125 C10.21947193 132.96090714 10.21947193 132.96090714 8 130 C7.83128267 128.21325587 7.73419535 126.41908464 7.6875 124.625 C7.39022156 120.52796261 7.2548486 119.32191402 4.625 116 C3.17000771 114.89143445 1.71334852 113.78501139 0.25 112.6875 C-2.62881793 108.80109579 -2.10576947 103.71688194 -1.4375 99.1875 C-0.62083888 95.85082738 -0.62083888 95.85082738 -3 93 C-2.76203757 90.46173406 -2.39825285 89.35332176 -0.4765625 87.6484375 C1.88024395 85.0172938 1.47027293 82.59414221 1.35546875 79.19921875 C0.83288359 75.96608199 -0.80529926 74.37759247 -3 72 C-5.79665648 67.48377772 -7.906754 63.440524 -7 58 C-6.01 57.34 -5.02 56.68 -4 56 C-3.41610178 53.18866532 -3.41610178 53.18866532 -3.1875 49.9375 C-2.1901909 42.29709805 0.82923798 37.74396614 5.70703125 31.984375 C7.36298154 29.87773142 7.36298154 29.87773142 6.75 26.3125 C6.34821394 23.17037949 6.34821394 23.17037949 5 22 C4.6875 19.75 4.6875 19.75 5 17 C6.0209375 15.7315625 6.0209375 15.7315625 7.0625 14.4375 C9.17562141 12.23861944 9.17562141 12.23861944 9.1875 9.875 C8.00475339 7.60777525 8.00475339 7.60777525 4.5 6.5625 C3.345 6.046875 2.19 5.53125 1 5 C0.28125 2.40234375 0.28125 2.40234375 0 0 Z " fill="#FAFAFB" transform="translate(126,131)"/>
<path d="M0 0 C4.68778281 1.64705882 4.68778281 1.64705882 6.4375 3.625 C8.7980781 5.70230873 10.96828478 5.13181371 14 5 C14.33 5.33 14.66 5.66 15 6 C16.4887186 6.08669432 17.981445 6.10703494 19.47265625 6.09765625 C20.82133789 6.09282227 20.82133789 6.09282227 22.19726562 6.08789062 C23.61555664 6.07532227 23.61555664 6.07532227 25.0625 6.0625 C26.01189453 6.05798828 26.96128906 6.05347656 27.93945312 6.04882812 C30.29303065 6.0370011 32.64648477 6.02052025 35 6 C35.33 5.34 35.66 4.68 36 4 C37.98 4.33 39.96 4.66 42 5 C42.598125 4.175 43.19625 3.35 43.8125 2.5 C44.534375 1.675 45.25625 0.85 46 0 C46.99 0 47.98 0 49 0 C49.19335938 0.88042969 49.38671875 1.76085937 49.5859375 2.66796875 C49.97652344 4.41013672 49.97652344 4.41013672 50.375 6.1875 C50.63023437 7.33605469 50.88546875 8.48460938 51.1484375 9.66796875 C51.90308813 12.62079896 52.61952697 15.28374551 54 18 C55.485 18.495 55.485 18.495 57 19 C58.38795221 21.12779881 59.61524987 23.20645872 60.8125 25.4375 C61.51972572 26.72066318 62.22806679 28.00321223 62.9375 29.28515625 C63.28554687 29.91824707 63.63359375 30.55133789 63.9921875 31.20361328 C65.77369416 34.37907986 67.72540222 37.44977428 69.67578125 40.5234375 C74.14069066 48.87374006 74.50728186 55.85910619 74.4375 65.25 C74.43645264 65.92020172 74.43540527 66.59040344 74.43432617 67.28091431 C74.39079783 80.89782786 72.7215791 94.05315677 70.3671875 107.4675293 C69.90433909 110.23327574 69.90433909 110.23327574 70 114 C71.1446875 112.824375 71.1446875 112.824375 72.3125 111.625 C76.35123789 107.68018625 78.83496104 106.64477482 84.375 106.125 C85.49648437 106.00382812 86.61796875 105.88265625 87.7734375 105.7578125 C91.712471 106.05347845 93.19996058 107.30483097 96 110 C95.78515625 111.828125 95.78515625 111.828125 95 114 C92.93359375 115.484375 92.93359375 115.484375 90.4375 116.75 C89.61121094 117.17796875 88.78492188 117.6059375 87.93359375 118.046875 C87.29550781 118.36140625 86.65742188 118.6759375 86 119 C86 119.99 86 120.98 86 122 C89.08809695 123.76462683 90.23312136 124 94 124 C94 125.65 94 127.3 94 129 C92.02 129.66 90.04 130.32 88 131 C88.185625 131.886875 88.37125 132.77375 88.5625 133.6875 C88.98042484 136.85178811 88.80777742 138.94839642 88 142 C88.99 142.33 89.98 142.66 91 143 C90.505 145.97 90.505 145.97 90 149 C89.01 149.33 88.02 149.66 87 150 C87.103125 150.845625 87.20625 151.69125 87.3125 152.5625 C86.8968594 157.13454663 84.86470536 159.54189139 82 163 C81.01 162.67 80.02 162.34 79 162 C78.3125 159.9375 78.3125 159.9375 78 158 C77.34 158.33 76.68 158.66 76 159 C76.00592908 160.35479457 76.05537646 161.70948262 76.125 163.0625 C75.84143513 166.82727621 75.21655815 167.80665587 72.33984375 170.375 C63.91238839 176 63.91238839 176 61 176 C60.83699273 169.41525492 61.40571268 163.33578465 62.53125 156.85546875 C62.68662231 155.92326004 62.84199463 154.99105133 63.0020752 154.03059387 C63.49453443 151.0816959 63.99663831 148.1345548 64.5 145.1875 C65.00192661 142.22237939 65.50173697 139.25693422 65.9979248 136.29084778 C66.3058652 134.45273622 66.61732712 132.61521028 66.93273926 130.77836609 C67.07288452 129.9468251 67.21302979 129.11528412 67.35742188 128.25854492 C67.48177612 127.53068283 67.60613037 126.80282074 67.73425293 126.05290222 C68.08558553 123.68385501 68.08558553 123.68385501 68 120 C67.01 125.28 66.02 130.56 65 136 C64.34 136 63.68 136 63 136 C62.34 136.99 61.68 137.98 61 139 C60.80379233 136.93831015 60.61839247 134.87559002 60.4375 132.8125 C60.28087891 131.08966797 60.28087891 131.08966797 60.12109375 129.33203125 C60 126 60 126 60.59375 123.21875 C60.79484375 122.12046875 60.79484375 122.12046875 61 121 C60.0409375 119.8553125 60.0409375 119.8553125 59.0625 118.6875 C56.84180933 115.79387277 56.24285704 113.90823227 56.40234375 110.25390625 C57.4351739 106.35885397 59.83563781 103.44695361 62.2734375 100.296875 C65.32884444 96.24472773 65.32884444 96.24472773 65.8125 91.375 C65.1535811 88.66348833 65.1535811 88.66348833 62 87 C61.62890625 84.6796875 61.62890625 84.6796875 61.5625 81.875 C61.0590092 74.45819325 58.71084733 69.76591373 53.75 64.3125 C51.77145593 62.10855217 51.05743123 61.27439366 50.4375 58.3125 C51 56 51 56 52.5625 53.9375 C54.22408479 52.13308401 54.22408479 52.13308401 53.875 50 C53.06212494 47.90315818 53.06212494 47.90315818 51.4375 46.0625 C49.64794866 43.49488286 49.59615099 42.06925248 50 39 C52.46278801 36.53721199 54.70676982 36.00228745 58 35 C57.67 34.67 57.34 34.34 57 34 C55.97519531 34.49371094 54.95039063 34.98742187 53.89453125 35.49609375 C52.5339935 36.14352206 51.17330861 36.79064121 49.8125 37.4375 C49.13896484 37.76298828 48.46542969 38.08847656 47.77148438 38.42382812 C34.79913038 44.56196636 18.12731489 43.45180285 4.5859375 39.33984375 C-8.29780018 34.52598533 -8.29780018 34.52598533 -10.9296875 29.07421875 C-11.02549632 26.24785858 -10.10999625 24.73675418 -8.6875 22.3125 C-8.23761719 21.52488281 -7.78773438 20.73726562 -7.32421875 19.92578125 C-6 18 -6 18 -4 17 C-1.81468106 11.54193068 -0.63321621 5.82558915 0 0 Z " fill="#595E69" transform="translate(136,100)"/>
<path d="M0 0 C0.495 1.485 0.495 1.485 1 3 C-0.05914402 4.08661461 -1.12250989 5.16911452 -2.1875 6.25 C-2.77917969 6.85328125 -3.37085938 7.4565625 -3.98046875 8.078125 C-6 10 -6 10 -8.70703125 11.71484375 C-11.37946367 13.92657458 -11.37946367 13.92657458 -11.59375 17.86328125 C-11.5884569 19.34667392 -11.55637212 20.8301694 -11.5 22.3125 C-11.50257813 23.04662109 -11.50515625 23.78074219 -11.5078125 24.53710938 C-11.37717743 31.89839584 -9.15686591 37.27660493 -3.875 42.5 C-0.32897981 46.2919121 0.78801458 48.70036454 1 54 C1.66 54.99 2.32 55.98 3 57 C3.43810285 61.0067913 3.32418931 65.03436492 3.3125 69.0625 C3.32861328 70.17689453 3.34472656 71.29128906 3.36132812 72.43945312 C3.36197266 73.50228516 3.36261719 74.56511719 3.36328125 75.66015625 C3.36626221 76.63605713 3.36924316 77.61195801 3.37231445 78.61743164 C3.24945068 79.4036792 3.12658691 80.18992676 3 81 C2.01 81.66 1.02 82.32 0 83 C-0.495 84.485 -0.495 84.485 -1 86 C-3.625 86.375 -3.625 86.375 -7 86 C-8.70135051 84.61845222 -10.08350583 83.10150007 -11.54296875 81.46875 C-13.45228819 79.5440741 -15.42322437 78.75787519 -18 78 C-18.49230769 71.6 -18.49230769 71.6 -16 68.5625 C-15.34 68.046875 -14.68 67.53125 -14 67 C-14.66 65.02 -15.32 63.04 -16 61 C-15.34 60.67 -14.68 60.34 -14 60 C-13.67 60.99 -13.34 61.98 -13 63 C-11.35 63 -9.7 63 -8 63 C-7.67 60.03 -7.34 57.06 -7 54 C-12.79706928 50.02486678 -19.17307748 50.34208632 -26 51 C-28.80197867 51.93033507 -28.80197867 51.93033507 -31 53 C-31.22275681 56.26709987 -31.32663401 58.39572708 -29.75 61.3125 C-27.82013689 63.17343943 -26.62434747 63.63802104 -24 64 C-24 62.68 -24 61.36 -24 60 C-23.34 60 -22.68 60 -22 60 C-22.33 61.65 -22.66 63.3 -23 65 C-23.66 65 -24.32 65 -25 65 C-24.175 65.66 -23.35 66.32 -22.5 67 C-19.14694485 71.02366618 -19.56839023 72.90700467 -20 78 C-20.886875 78.391875 -21.77375 78.78375 -22.6875 79.1875 C-26.10865027 80.84160972 -26.10865027 80.84160972 -28.5625 83.6875 C-31 86 -31 86 -33.5625 86.625 C-36 86 -36 86 -38.12890625 84.25390625 C-41.06735278 79.14383118 -40.49906875 74.09475661 -40.375 68.3125 C-40.37371094 67.15943359 -40.37242187 66.00636719 -40.37109375 64.81835938 C-40.28096288 56.28096288 -40.28096288 56.28096288 -38 54 C-37.855625 52.88625 -37.71125 51.7725 -37.5625 50.625 C-37.00568227 47.03661906 -36.40384625 45.61287635 -34 43 C-35.216875 42.9175 -36.43375 42.835 -37.6875 42.75 C-41.87245257 42.25722 -43.74298129 40.65704158 -47 38 C-50.20980136 37.66486406 -50.20980136 37.66486406 -53 38 C-52.608125 37.443125 -52.21625 36.88625 -51.8125 36.3125 C-51.544375 35.549375 -51.27625 34.78625 -51 34 C-51.9873454 32.32580562 -52.98812105 30.65948148 -54 29 C-54.1875 26.5 -54.1875 26.5 -53 24 C-46.16907054 18.1547996 -37.70426035 15.60943364 -28.84765625 15.796875 C-27 16 -27 16 -25 17 C-24.90912109 15.39318359 -24.90912109 15.39318359 -24.81640625 13.75390625 C-24.73201463 12.35675609 -24.64736594 10.95962143 -24.5625 9.5625 C-24.52318359 8.85544922 -24.48386719 8.14839844 -24.44335938 7.41992188 C-24.11328125 2.11328125 -24.11328125 2.11328125 -23 1 C-17.26388889 0.72685185 -17.26388889 0.72685185 -15 1 C-11.99382731 4.00617269 -12.40414684 6.82381598 -12 11 C-10.37438849 9.54234835 -8.74953066 8.08385614 -7.125 6.625 C-6.22007812 5.81289063 -5.31515625 5.00078125 -4.3828125 4.1640625 C-2.89103817 2.80923795 -1.42494565 1.42494565 0 0 Z " fill="#F8F9F9" transform="translate(180,16)"/>
<path d="M0 0 C4.34121569 2.5179051 6.54113301 5.06089902 8.125 9.8125 C8.56320819 16.69134942 8.38552808 23.25461386 6.125 29.8125 C5.795 30.78832031 5.465 31.76414063 5.125 32.76953125 C-0.59604881 48.63415016 -10.54142524 65.2567835 -24.875 74.8125 C-23.99457031 74.97105469 -23.11414063 75.12960937 -22.20703125 75.29296875 C-17.1895784 76.30091433 -12.89292289 77.19043601 -8.5 79.875 C-6.07500041 84.25865311 -6.93593683 88.02420762 -7.875 92.8125 C-8.865 92.8125 -9.855 92.8125 -10.875 92.8125 C-11.205 89.5125 -11.535 86.2125 -11.875 82.8125 C-11.875 83.1425 -11.875 83.4725 -11.875 83.8125 C-11.875 86.8125 -11.875 89.8125 -11.875 92.8125 C-13.195 92.8125 -14.515 92.8125 -15.875 92.8125 C-16.37 88.3575 -16.37 88.3575 -16.875 83.8125 C-17.205 83.8125 -17.535 83.8125 -17.875 83.8125 C-17.875 86.7825 -17.875 89.7525 -17.875 92.8125 C-18.535 92.8125 -19.195 92.8125 -19.875 92.8125 C-20.12894531 92.25820313 -20.38289063 91.70390625 -20.64453125 91.1328125 C-20.98871094 90.40835938 -21.33289063 89.68390625 -21.6875 88.9375 C-22.02394531 88.21820313 -22.36039063 87.49890625 -22.70703125 86.7578125 C-23.86967097 84.50707194 -23.86967097 84.50707194 -26.875 82.8125 C-29.39084891 82.57099227 -29.39084891 82.57099227 -32.0625 82.6875 C-33.650625 82.72875 -35.23875 82.77 -36.875 82.8125 C-36.875 79.1825 -36.875 75.5525 -36.875 71.8125 C-37.535 76.4325 -38.195 81.0525 -38.875 85.8125 C-37.39 84.8225 -37.39 84.8225 -35.875 83.8125 C-32.46365137 83.22021242 -29.28196974 83.1768297 -25.875 83.8125 C-22.73748027 86.95001973 -21.95148439 88.77996078 -21.625 93.1875 C-21.7075 94.05375 -21.79 94.92 -21.875 95.8125 C-22.535 95.8125 -23.195 95.8125 -23.875 95.8125 C-24.205 94.4925 -24.535 93.1725 -24.875 91.8125 C-24.875 93.1325 -24.875 94.4525 -24.875 95.8125 C-25.865 95.8125 -26.855 95.8125 -27.875 95.8125 C-28.535 93.5025 -29.195 91.1925 -29.875 88.8125 C-29.875 89.1425 -29.875 89.4725 -29.875 89.8125 C-29.875 91.8125 -29.875 93.8125 -29.875 95.8125 C-33.31234063 95.89953823 -36.74939837 95.95290272 -40.1875 96 C-41.16396484 96.02513672 -42.14042969 96.05027344 -43.14648438 96.07617188 C-44.08427734 96.08583984 -45.02207031 96.09550781 -45.98828125 96.10546875 C-47.28439331 96.12903442 -47.28439331 96.12903442 -48.60668945 96.15307617 C-51.38213778 95.73635564 -52.20517393 95.02974623 -53.875 92.8125 C-58.03962937 80.3186119 -55.9736338 64.79422599 -55.875 51.8125 C-55.545 51.8125 -55.215 51.8125 -54.875 51.8125 C-54.545 59.4025 -54.215 66.9925 -53.875 74.8125 C-50.450364 69.20984932 -50.450364 69.20984932 -48.75 63.5625 C-47.875 59.8125 -47.875 59.8125 -45.875 56.8125 C-45.77960405 54.91860989 -45.74514396 53.02128494 -45.75 51.125 C-45.43867314 46.15574442 -44.654892 43.90145059 -41 40.5 C-40.28070313 39.88511719 -39.56140625 39.27023438 -38.8203125 38.63671875 C-36.00421326 35.99591886 -35.08195274 33.43335821 -33.875 29.8125 C-32.885 30.1425 -31.895 30.4725 -30.875 30.8125 C-30.75382812 29.69230469 -30.63265625 28.57210937 -30.5078125 27.41796875 C-30.33896733 25.94526364 -30.16967303 24.47260996 -30 23 C-29.92136719 22.26201172 -29.84273437 21.52402344 -29.76171875 20.76367188 C-29.33039714 17.09743819 -28.9553217 14.93298255 -26.875 11.8125 C-27.43157606 22.54578138 -29.08223309 32.98054602 -30.875 43.5625 C-31.28797091 46.02142186 -31.69925345 48.48060397 -32.10791016 50.94024658 C-32.3600376 52.45564086 -32.61471112 53.9706149 -32.87255859 55.48504639 C-33.72520955 60.5805179 -34.33874961 65.67385535 -34.875 70.8125 C-26.47134419 66.96043931 -26.47134419 66.96043931 -20.7890625 60.27734375 C-20.58294234 58.03489853 -20.56054185 56.03948231 -20.875 53.8125 C-19.885 53.4825 -18.895 53.1525 -17.875 52.8125 C-17.215 54.1325 -16.555 55.4525 -15.875 56.8125 C-12.75842548 56.09196153 -12.75842548 56.09196153 -11.25 53.625 C-9.72576986 50.85385699 -9.72576986 50.85385699 -9.375 47.6875 C-8.81681771 44.47795183 -8.12507768 43.96474822 -5.875 41.8125 C-5.875 40.4925 -5.875 39.1725 -5.875 37.8125 C-6.865 37.3175 -6.865 37.3175 -7.875 36.8125 C-7.875 33.1825 -7.875 29.5525 -7.875 25.8125 C-5.895 25.1525 -3.915 24.4925 -1.875 23.8125 C-2.205 22.1625 -2.535 20.5125 -2.875 18.8125 C-3.74125 19.1528125 -3.74125 19.1528125 -4.625 19.5 C-6.875 19.8125 -6.875 19.8125 -9.125 18.375 C-9.7025 17.859375 -10.28 17.34375 -10.875 16.8125 C-10.66015625 14.984375 -10.66015625 14.984375 -9.875 12.8125 C-7.80859375 11.328125 -7.80859375 11.328125 -5.3125 10.0625 C-4.48621094 9.63453125 -3.65992188 9.2065625 -2.80859375 8.765625 C-1.85146484 8.29382813 -1.85146484 8.29382813 -0.875 7.8125 C-1.15117533 5.87175139 -1.15117533 5.87175139 -1.875 3.8125 C-6.8022734 0.52765107 -12.21150595 1.84025552 -17.875 2.8125 C-20.58824876 3.898679 -22.48758965 5.0913437 -24.875 6.8125 C-24.875 5.8225 -24.875 4.8325 -24.875 3.8125 C-23.605447 3.16415346 -22.33430294 2.51892185 -21.0625 1.875 C-20.35480469 1.51535156 -19.64710938 1.15570313 -18.91796875 0.78515625 C-13.0463417 -2.01032202 -6.11756687 -2.34374315 0 0 Z " fill="#565A65" transform="translate(231.875,205.1875)"/>
<path d="M0 0 C1.04929688 -0.02835938 2.09859375 -0.05671875 3.1796875 -0.0859375 C6.85929019 0.48991544 7.89303987 1.43716384 10.125 4.375 C11.35546875 6.92578125 11.35546875 6.92578125 12.3125 9.6875 C12.63605469 10.59113281 12.95960938 11.49476563 13.29296875 12.42578125 C15.0630826 18.70012846 15.2293916 24.70347948 15.00390625 31.15234375 C14.96848976 32.36936729 14.96848976 32.36936729 14.93235779 33.61097717 C14.85636277 36.17835858 14.77206652 38.74538809 14.6875 41.3125 C14.63421489 43.06313437 14.58147505 44.81378542 14.52929688 46.56445312 C14.40083562 50.83485424 14.26493369 55.10496005 14.125 59.375 C10.18246114 60.83763637 6.92896594 61.61975254 2.7265625 61.5703125 C1.75332031 61.56386719 0.78007812 61.55742187 -0.22265625 61.55078125 C-1.22167969 61.53402344 -2.22070312 61.51726562 -3.25 61.5 C-4.78333984 61.48646484 -4.78333984 61.48646484 -6.34765625 61.47265625 C-8.85701522 61.4492043 -11.36588336 61.41638355 -13.875 61.375 C-14.06437134 62.29732422 -14.06437134 62.29732422 -14.25756836 63.23828125 C-14.42909424 64.04652344 -14.60062012 64.85476563 -14.77734375 65.6875 C-14.94484131 66.48800781 -15.11233887 67.28851563 -15.28491211 68.11328125 C-16.120756 71.31694605 -17.52371637 74.02371637 -19.875 76.375 C-21.43672745 76.46185603 -23.00229344 76.48202219 -24.56640625 76.47265625 C-25.51064453 76.46943359 -26.45488281 76.46621094 -27.42773438 76.46289062 C-28.42095703 76.45451172 -29.41417969 76.44613281 -30.4375 76.4375 C-31.43458984 76.43298828 -32.43167969 76.42847656 -33.45898438 76.42382812 C-35.93104849 76.41200007 -38.40299518 76.39551849 -40.875 76.375 C-40.875 76.045 -40.875 75.715 -40.875 75.375 C-39.69421875 75.37242187 -38.5134375 75.36984375 -37.296875 75.3671875 C-35.73954555 75.32966149 -34.18225458 75.29051394 -32.625 75.25 C-31.45904297 75.25386719 -31.45904297 75.25386719 -30.26953125 75.2578125 C-26.20250787 75.11876897 -24.46858008 74.97054558 -21.515625 72.0078125 C-17.59897176 63.33522318 -16.45479319 55.13346043 -16.3125 45.6875 C-16.03983297 36.12198578 -15.38890589 26.82850124 -13.875 17.375 C-13.66037109 16.00794922 -13.66037109 16.00794922 -13.44140625 14.61328125 C-11.94032766 6.57653306 -8.74141038 0.10686321 0 0 Z " fill="#383B42" transform="translate(160.875,224.625)"/>
<path d="M0 0 C5.79800422 0.89176995 10.13935013 3.52641026 14.39241028 7.52177429 C16.32904217 11.39029176 16.88802344 15.18166034 17.43537903 19.44755554 C17.711679 21.16170906 17.711679 21.16170906 17.99356079 22.91049194 C18.56756407 26.54645595 19.07353802 30.18834575 19.57991028 33.83427429 C19.95913641 36.27178628 20.34256081 38.70864902 20.7303009 41.14482117 C22.25182332 50.98384296 23.70880535 60.54252621 23.39241028 70.52177429 C17.66243718 69.21119127 12.77377778 66.44042311 8.39241028 62.52177429 C7.47240914 59.94411345 7.31369672 58.0626873 7.41975403 55.34208679 C7.41073059 54.74138367 7.40170715 54.14068054 7.39241028 53.52177429 C6.73241028 53.19177429 6.07241028 52.86177429 5.39241028 52.52177429 C4.40241028 54.99677429 4.40241028 54.99677429 3.39241028 57.52177429 C-0.44727831 56.06534069 -1.91765435 54.23963212 -3.60758972 50.52177429 C-3.79508972 47.20927429 -3.79508972 47.20927429 -3.60758972 44.52177429 C-4.59758972 44.19177429 -5.58758972 43.86177429 -6.60758972 43.52177429 C-6.93758972 41.54177429 -7.26758972 39.56177429 -7.60758972 37.52177429 C-6.12258972 37.02677429 -6.12258972 37.02677429 -4.60758972 36.52177429 C-4.79321472 35.24302429 -4.97883972 33.96427429 -5.17008972 32.64677429 C-5.73258972 28.77177429 -5.73258972 28.77177429 -4.60758972 26.52177429 C-6.58758972 25.53177429 -8.56758972 24.54177429 -10.60758972 23.52177429 C-10.60758972 21.87177429 -10.60758972 20.22177429 -10.60758972 18.52177429 C-7.93367732 17.63047016 -5.37035149 17.04445895 -2.60758972 16.52177429 C-2.60758972 15.53177429 -2.60758972 14.54177429 -2.60758972 13.52177429 C-3.24567566 13.20724304 -3.8837616 12.89271179 -4.54118347 12.56864929 C-5.36747253 12.14068054 -6.1937616 11.71271179 -7.04508972 11.27177429 C-8.28065613 10.64528992 -8.28065613 10.64528992 -9.54118347 10.00614929 C-11.60758972 8.52177429 -11.60758972 8.52177429 -12.64274597 6.59989929 C-12.60758972 4.52177429 -12.60758972 4.52177429 -11.01774597 2.31474304 C-7.35193312 -0.41233654 -4.45326889 -0.24236433 0 0 Z " fill="#F4F5F5" transform="translate(101.60758972167969,205.4782257080078)"/>
<path d="M0 0 C4.04964822 0.36814984 5.56274642 1.52486016 8.4375 4.3125 C8.22265625 6.140625 8.22265625 6.140625 7.4375 8.3125 C5.37109375 9.796875 5.37109375 9.796875 2.875 11.0625 C2.04871094 11.49046875 1.22242188 11.9184375 0.37109375 12.359375 C-0.26699219 12.67390625 -0.90507812 12.9884375 -1.5625 13.3125 C-1.5625 14.3025 -1.5625 15.2925 -1.5625 16.3125 C1.52559695 18.07712683 2.67062136 18.3125 6.4375 18.3125 C6.4375 19.9625 6.4375 21.6125 6.4375 23.3125 C4.4575 23.9725 2.4775 24.6325 0.4375 25.3125 C0.623125 26.199375 0.80875 27.08625 1 28 C1.41792484 31.16428811 1.24527742 33.26089642 0.4375 36.3125 C1.9225 36.8075 1.9225 36.8075 3.4375 37.3125 C3.1075 39.2925 2.7775 41.2725 2.4375 43.3125 C0.9525 43.8075 0.9525 43.8075 -0.5625 44.3125 C-0.459375 45.158125 -0.35625 46.00375 -0.25 46.875 C-0.6656406 51.44704663 -2.69779464 53.85439139 -5.5625 57.3125 C-7.0475 56.8175 -7.0475 56.8175 -8.5625 56.3125 C-9.25 54.25 -9.25 54.25 -9.5625 52.3125 C-10.5525 52.8075 -10.5525 52.8075 -11.5625 53.3125 C-11.55657092 54.66729457 -11.50712354 56.02198262 -11.4375 57.375 C-11.72106487 61.13977621 -12.34594185 62.11915587 -15.22265625 64.6875 C-23.65011161 70.3125 -23.65011161 70.3125 -26.5625 70.3125 C-26.7110321 63.83934902 -26.20676833 57.82666027 -25.13671875 51.44921875 C-24.98846146 50.53598343 -24.84020416 49.62274811 -24.68745422 48.68183899 C-24.37393401 46.76104213 -24.0569211 44.84081238 -23.73657227 42.92114258 C-23.25330181 40.01982244 -22.78303385 37.11661528 -22.31445312 34.21289062 C-17.84759582 6.8375436 -17.84759582 6.8375436 -13.25 3.125 C-8.9339462 0.68195068 -4.87026693 0.4272164 0 0 Z " fill="#F6F6F7" transform="translate(223.5625,205.6875)"/>
<path d="M0 0 C4.8203125 1.796875 4.8203125 1.796875 6.4375 3.625 C8.7980781 5.70230873 10.96828478 5.13181371 14 5 C14.33 5.33 14.66 5.66 15 6 C16.4887186 6.08669432 17.981445 6.10703494 19.47265625 6.09765625 C20.82133789 6.09282227 20.82133789 6.09282227 22.19726562 6.08789062 C23.61555664 6.07532227 23.61555664 6.07532227 25.0625 6.0625 C26.01189453 6.05798828 26.96128906 6.05347656 27.93945312 6.04882812 C30.29303065 6.0370011 32.64648477 6.02052025 35 6 C35.33 5.34 35.66 4.68 36 4 C37.98 4.33 39.96 4.66 42 5 C42.598125 4.175 43.19625 3.35 43.8125 2.5 C44.534375 1.675 45.25625 0.85 46 0 C46.99 0 47.98 0 49 0 C50.06184273 4.32083174 51.04103516 8.65530214 52 13 C52.34804687 14.31484375 52.34804687 14.31484375 52.703125 15.65625 C53.19948949 17.99396665 53.46010769 19.65202776 53 22 C48.84655366 27.23495315 42.31130967 29.48382077 36 31 C32.34248449 31.42029464 28.74116301 31.4655814 25.0625 31.4375 C24.13759766 31.45748047 23.21269531 31.47746094 22.25976562 31.49804688 C13.62905395 31.49199872 5.73058985 29.37019763 -0.625 23.25 C-1.27726563 22.63640625 -1.92953125 22.0228125 -2.6015625 21.390625 C-3.06304687 20.93171875 -3.52453125 20.4728125 -4 20 C-3.566875 18.1128125 -3.566875 18.1128125 -3.125 16.1875 C-1.92819728 10.81898493 -0.95169368 5.41655444 0 0 Z " fill="#F8F9F9" transform="translate(136,100)"/>
<path d="M0 0 C0.33 0 0.66 0 1 0 C0.44342394 10.73328138 -1.20723309 21.16804602 -3 31.75 C-3.41297091 34.20892186 -3.82425345 36.66810397 -4.23291016 39.12774658 C-4.4850376 40.64314086 -4.73971112 42.1581149 -4.99755859 43.67254639 C-5.85020955 48.7680179 -6.46374961 53.86135535 -7 59 C-6.34 59.33 -5.68 59.66 -5 60 C-5.99 61.32 -6.98 62.64 -8 64 C-8.33 62.68 -8.66 61.36 -9 60 C-9.66 64.62 -10.32 69.24 -11 74 C-9.515 73.01 -9.515 73.01 -8 72 C-4.58865137 71.40771242 -1.40696974 71.3643297 2 72 C5.13751973 75.13751973 5.92351561 76.96746078 6.25 81.375 C6.1675 82.24125 6.085 83.1075 6 84 C5.34 84 4.68 84 4 84 C3.67 82.68 3.34 81.36 3 80 C3 81.32 3 82.64 3 84 C2.01 84 1.02 84 0 84 C-0.66 81.69 -1.32 79.38 -2 77 C-2 77.33 -2 77.66 -2 78 C-2 80 -2 82 -2 84 C-5.43734063 84.08703823 -8.87439837 84.14040272 -12.3125 84.1875 C-13.28896484 84.21263672 -14.26542969 84.23777344 -15.27148438 84.26367188 C-16.20927734 84.27333984 -17.14707031 84.28300781 -18.11328125 84.29296875 C-19.40939331 84.31653442 -19.40939331 84.31653442 -20.73168945 84.34057617 C-23.50713778 83.92385564 -24.33017393 83.21724623 -26 81 C-30.16462937 68.5061119 -28.0986338 52.98172599 -28 40 C-27.67 40 -27.34 40 -27 40 C-26.67 47.59 -26.34 55.18 -26 63 C-22.575364 57.39734932 -22.575364 57.39734932 -20.875 51.75 C-20 48 -20 48 -18 45 C-17.90460405 43.10610989 -17.87014396 41.20878494 -17.875 39.3125 C-17.56367314 34.34324442 -16.779892 32.08895059 -13.125 28.6875 C-12.40570313 28.07261719 -11.68640625 27.45773438 -10.9453125 26.82421875 C-8.12921326 24.18341886 -7.20695274 21.62085821 -6 18 C-5.01 18.33 -4.02 18.66 -3 19 C-2.86722656 17.87980469 -2.73445313 16.75960937 -2.59765625 15.60546875 C-2.41943431 14.13279271 -2.24103989 12.66013753 -2.0625 11.1875 C-1.97548828 10.44951172 -1.88847656 9.71152344 -1.79882812 8.95117188 C-1.41783454 5.83266879 -0.99630626 2.98891878 0 0 Z " fill="#50555F" transform="translate(204,217)"/>
<path d="M0 0 C1.32 0 2.64 0 4 0 C4.37125 1.216875 4.7425 2.43375 5.125 3.6875 C6.81398226 8.27536046 9.11903366 10.13145966 13 13 C14.25661156 15.51322312 14.21567716 17.50917677 14.375 20.3125 C14.73881817 24.75916654 15.48504921 27.27787284 18 31 C18.48008508 32.98435166 18.95801238 34.96960453 19.390625 36.96484375 C20.03536704 39.11811684 20.93209351 40.58448562 22.1875 42.4375 C24.53634547 47.05419628 24.26704192 50.07561014 23 55 C21.625 58.3125 21.625 58.3125 20 61 C19.65066406 61.71027344 19.30132812 62.42054688 18.94140625 63.15234375 C16.25502791 65.70899758 14.29470938 65.41286207 10.69335938 65.3515625 C9.90767578 65.31804687 9.12199219 65.28453125 8.3125 65.25 C7.51521484 65.23195313 6.71792969 65.21390625 5.89648438 65.1953125 C3.93047551 65.14822247 1.96508506 65.07647899 0 65 C0 63.35 0 61.7 0 60 C-0.66 61.98 -1.32 63.96 -2 66 C-2.66 66 -3.32 66 -4 66 C-4 63.36 -4 60.72 -4 58 C-4.66 60.64 -5.32 63.28 -6 66 C-6.66 66 -7.32 66 -8 66 C-8.35395298 62.28349373 -8.03816974 60.0896159 -6.5625 56.625 C-3.74263402 53.7363568 -3.30833274 53.58783634 0.5 53.5 C4.1381548 53.64951321 5.54503087 54.27251543 9 56 C8.01 49.4 7.02 42.8 6 36 C5.67 36 5.34 36 5 36 C4.27875323 32.1605119 3.56707381 28.3193788 2.86376953 24.4765625 C2.5065422 22.53554741 2.14201019 20.59588124 1.77734375 18.65625 C0.62696864 12.34562084 -0.32410266 6.41723276 0 0 Z " fill="#525661" transform="translate(120,235)"/>
<path d="M0 0 C0.495 1.485 0.495 1.485 1 3 C-0.05914402 4.08661461 -1.12250989 5.16911452 -2.1875 6.25 C-2.82300781 6.89582031 -3.45851562 7.54164062 -4.11328125 8.20703125 C-6 10 -6 10 -8.875 11.9375 C-12.0529046 15.02193682 -11.78262087 17.65241735 -12 22 C-12.33 22 -12.66 22 -13 22 C-13.495 19.03 -13.495 19.03 -14 16 C-14.48210937 16.3609375 -14.96421875 16.721875 -15.4609375 17.09375 C-16.09257812 17.5578125 -16.72421875 18.021875 -17.375 18.5 C-18.00148437 18.9640625 -18.62796875 19.428125 -19.2734375 19.90625 C-21 21 -21 21 -23 21 C-22.87625 22.7325 -22.87625 22.7325 -22.75 24.5 C-22.76109749 30.77008102 -25.59318337 35.01390593 -29.125 40 C-32.78559135 42.54649833 -35.25999663 42.64229305 -39.640625 42.44140625 C-42.87059935 41.83712297 -44.57977016 40.15131541 -47 38 C-50.20980136 37.66486406 -50.20980136 37.66486406 -53 38 C-52.608125 37.443125 -52.21625 36.88625 -51.8125 36.3125 C-51.544375 35.549375 -51.27625 34.78625 -51 34 C-51.9873454 32.32580562 -52.98812105 30.65948148 -54 29 C-54.1875 26.5 -54.1875 26.5 -53 24 C-46.16907054 18.1547996 -37.70426035 15.60943364 -28.84765625 15.796875 C-27 16 -27 16 -25 17 C-24.90912109 15.39318359 -24.90912109 15.39318359 -24.81640625 13.75390625 C-24.73201463 12.35675609 -24.64736594 10.95962143 -24.5625 9.5625 C-24.52318359 8.85544922 -24.48386719 8.14839844 -24.44335938 7.41992188 C-24.11328125 2.11328125 -24.11328125 2.11328125 -23 1 C-17.26388889 0.72685185 -17.26388889 0.72685185 -15 1 C-11.99382731 4.00617269 -12.40414684 6.82381598 -12 11 C-10.37438849 9.54234835 -8.74953066 8.08385614 -7.125 6.625 C-6.22007812 5.81289063 -5.31515625 5.00078125 -4.3828125 4.1640625 C-2.89103817 2.80923795 -1.42494565 1.42494565 0 0 Z " fill="#25CACA" transform="translate(180,16)"/>
<path d="M0 0 C0.94875 0.886875 1.8975 1.77375 2.875 2.6875 C14.49616971 12.69593596 27.35627251 13.05478673 42 12 C48.13013769 10.75853455 53.58069734 8.56186081 58 4 C59.31165257 1.88339573 59.31165257 1.88339573 60 0 C64.22480426 1.40826809 65.08292303 3.82822863 67.125 7.6328125 C68 10 68 10 67.3125 13.5625 C66.879375 14.366875 66.44625 15.17125 66 16 C65.01 16 64.02 16 63 16 C60.50529459 17.09824387 58.067179 18.23291171 55.625 19.4375 C41.81857609 26.2463321 25.2312822 25.78703229 10.5859375 21.33984375 C-2.27604133 16.53411528 -2.27604133 16.53411528 -4.9375 11.078125 C-5.02365487 8.21347551 -4.0313248 6.68609967 -2.5625 4.25 C-2.08941406 3.45078125 -1.61632812 2.6515625 -1.12890625 1.828125 C-0.75636719 1.22484375 -0.38382813 0.6215625 0 0 Z " fill="#2ACBCC" transform="translate(130,118)"/>
<path d="M0 0 C1.82612013 0.90195228 3.40930337 1.90930337 4.85546875 3.35546875 C4.39821229 9.52843098 4.39821229 9.52843098 2.54296875 12.35546875 C0.85546875 13.35546875 0.85546875 13.35546875 -1.33203125 13.04296875 C-1.93015625 12.81609375 -2.52828125 12.58921875 -3.14453125 12.35546875 C-2.89703125 12.93296875 -2.64953125 13.51046875 -2.39453125 14.10546875 C-2.27078125 15.21921875 -2.27078125 15.21921875 -2.14453125 16.35546875 C-2.76328125 16.95359375 -3.38203125 17.55171875 -4.01953125 18.16796875 C-6.84131939 21.07275066 -6.84068393 23.40545354 -7.14453125 27.35546875 C-6.25765625 27.58234375 -5.37078125 27.80921875 -4.45703125 28.04296875 C-1.14453125 29.35546875 -1.14453125 29.35546875 1.35546875 31.91796875 C4.24359928 34.73389602 5.9039042 35.0797782 9.85546875 35.35546875 C10.18546875 34.03546875 10.51546875 32.71546875 10.85546875 31.35546875 C11.84546875 31.35546875 12.83546875 31.35546875 13.85546875 31.35546875 C11.74832589 37.3527215 11.74832589 37.3527215 8.85546875 39.35546875 C6.53057994 39.07366405 4.9465404 38.40100457 2.85546875 37.35546875 C2.52546875 38.34546875 2.19546875 39.33546875 1.85546875 40.35546875 C-1.41534596 40.38449304 -4.68612755 40.40227559 -7.95703125 40.41796875 C-9.35018555 40.43053711 -9.35018555 40.43053711 -10.77148438 40.44335938 C-11.66416016 40.44658203 -12.55683594 40.44980469 -13.4765625 40.453125 C-14.29874268 40.45836182 -15.12092285 40.46359863 -15.96801758 40.46899414 C-18.14453125 40.35546875 -18.14453125 40.35546875 -21.14453125 39.35546875 C-22.35109375 39.26265625 -22.35109375 39.26265625 -23.58203125 39.16796875 C-27.29383817 37.99105436 -28.26167792 35.63302824 -30.14453125 32.35546875 C-28.65953125 31.86046875 -28.65953125 31.86046875 -27.14453125 31.35546875 C-26.48453125 32.34546875 -25.82453125 33.33546875 -25.14453125 34.35546875 C-21.7863546 34.24602611 -21.7863546 34.24602611 -18.14453125 33.35546875 C-16.76220682 31.72920471 -15.4251561 30.06296855 -14.14453125 28.35546875 C-11.39453125 27.54296875 -11.39453125 27.54296875 -9.14453125 27.35546875 C-9.22535656 21.76173537 -9.22535656 21.76173537 -12.20703125 17.48046875 C-12.84640625 17.10921875 -13.48578125 16.73796875 -14.14453125 16.35546875 C-14.14453125 15.69546875 -14.14453125 15.03546875 -14.14453125 14.35546875 C-13.48453125 14.02546875 -12.82453125 13.69546875 -12.14453125 13.35546875 C-11.49239833 11.3308362 -11.49239833 11.3308362 -11.14453125 9.35546875 C-11.80453125 9.35546875 -12.46453125 9.35546875 -13.14453125 9.35546875 C-13.14453125 10.67546875 -13.14453125 11.99546875 -13.14453125 13.35546875 C-16.13281439 13.03241111 -17.7577437 12.70357754 -20.01953125 10.66796875 C-21.59462756 7.43027079 -21.29482508 5.73445687 -20.14453125 2.35546875 C-14.5147588 -1.9712099 -6.68172665 -2.00816921 0 0 Z " fill="#080808" transform="translate(169.14453125,66.64453125)"/>
<path d="M0 0 C4.34121569 2.5179051 6.54113301 5.06089902 8.125 9.8125 C8.56794602 16.76572243 8.33378688 23.18613937 6.125 29.8125 C5.465 30.4725 4.805 31.1325 4.125 31.8125 C3.465 31.8125 2.805 31.8125 2.125 31.8125 C1.465 32.01875 0.805 32.225 0.125 32.4375 C-0.535 32.56125 -1.195 32.685 -1.875 32.8125 C-3.875 30.8125 -3.875 30.8125 -4 28.1875 C-3.95875 27.40375 -3.9175 26.62 -3.875 25.8125 C-4.535 25.4825 -5.195 25.1525 -5.875 24.8125 C-4.555 24.4825 -3.235 24.1525 -1.875 23.8125 C-2.37 21.3375 -2.37 21.3375 -2.875 18.8125 C-3.74125 19.1528125 -3.74125 19.1528125 -4.625 19.5 C-6.875 19.8125 -6.875 19.8125 -9.125 18.375 C-9.7025 17.859375 -10.28 17.34375 -10.875 16.8125 C-10.66015625 14.984375 -10.66015625 14.984375 -9.875 12.8125 C-7.80859375 11.328125 -7.80859375 11.328125 -5.3125 10.0625 C-4.48621094 9.63453125 -3.65992188 9.2065625 -2.80859375 8.765625 C-2.17050781 8.45109375 -1.53242188 8.1365625 -0.875 7.8125 C-1.15117533 5.87175139 -1.15117533 5.87175139 -1.875 3.8125 C-6.8022734 0.52765107 -12.21150595 1.84025552 -17.875 2.8125 C-20.58824876 3.898679 -22.48758965 5.0913437 -24.875 6.8125 C-24.875 5.8225 -24.875 4.8325 -24.875 3.8125 C-23.605447 3.16415346 -22.33430294 2.51892185 -21.0625 1.875 C-20.35480469 1.51535156 -19.64710938 1.15570313 -18.91796875 0.78515625 C-13.0463417 -2.01032202 -6.11756687 -2.34374315 0 0 Z " fill="#575C66" transform="translate(231.875,205.1875)"/>
<path d="M0 0 C0.70125 0.7425 1.4025 1.485 2.125 2.25 C9.32167147 9.13377271 14.73281762 10.31061916 24.421875 10.2109375 C32.94695011 9.70836757 38.55547308 6.42604582 45 1 C44.731875 1.78375 44.46375 2.5675 44.1875 3.375 C43.22072717 6.32620128 42.28307903 9.28045247 41.375 12.25 C41.11460937 13.10078125 40.85421875 13.9515625 40.5859375 14.828125 C39.91317612 16.9469063 39.91317612 16.9469063 40 19 C39.34 19 38.68 19 38 19 C38 24.28 38 29.56 38 35 C37.67 35 37.34 35 37 35 C36.80664062 34.05898437 36.61328125 33.11796875 36.4140625 32.1484375 C36.15367187 30.90320313 35.89328125 29.65796875 35.625 28.375 C35.36976563 27.14523438 35.11453125 25.91546875 34.8515625 24.6484375 C34.07298539 21.31269889 33.3199408 18.16216034 32 15 C27.09464665 13.36488222 22.11332685 13.37055866 17 14 C9.60597751 20.16168541 9.19657964 32.21955318 8.375 41.1875 C8.24490466 42.79126148 8.11794705 44.39529935 8 46 C7.67 46 7.34 46 7 46 C7.03665771 45.11852295 7.07331543 44.2370459 7.11108398 43.32885742 C7.23159074 40.00544243 7.3186954 36.68440071 7.38452148 33.35961914 C7.41936933 31.93085733 7.46686972 30.50233839 7.52807617 29.07446289 C7.90537194 20.0352172 7.31581655 13.66893843 1.51586914 6.2277832 C0 4 0 4 0 0 Z " fill="#B3B3B3" transform="translate(138,212)"/>
<path d="M0 0 C0.33 0 0.66 0 1 0 C2.00781972 5.65405241 3.00429423 11.30994973 3.99072266 16.96777344 C4.32719839 18.88855629 4.66666198 20.80881841 5.00927734 22.72851562 C5.50381828 25.50255866 5.98725544 28.2783539 6.46875 31.0546875 C6.62186646 31.8998996 6.77498291 32.74511169 6.93273926 33.61593628 C7.93083569 39.45655047 8.17341369 45.07965275 8 51 C7.01 50.67 6.02 50.34 5 50 C4.19360352 47.90698242 4.19360352 47.90698242 3.56640625 45.16796875 C2.05290473 39.06564893 0.05846673 33.22680983 -2.0625 27.3125 C-8.56138571 9.17524282 -8.56138571 9.17524282 -8 3 C-7 2 -7 2 -3.4375 1.9375 C-2.303125 1.958125 -1.16875 1.97875 0 2 C0 1.34 0 0.68 0 0 Z " fill="#B1B1B1" transform="translate(117,225)"/>
<path d="M0 0 C0.33 0.99 0.66 1.98 1 3 C3.00016466 4.20882096 3.00016466 4.20882096 5 5 C4.75263004 16.0641838 1.86325926 26.38972555 -1 37 C-1.19561523 37.74330566 -1.39123047 38.48661133 -1.59277344 39.25244141 C-3.86344138 47.87818615 -3.86344138 47.87818615 -5 51 C-5.99 51.495 -5.99 51.495 -7 52 C-7.16442197 45.37320734 -6.58611124 39.23965577 -5.46875 32.71484375 C-5.31337769 31.77314835 -5.15800537 30.83145294 -4.9979248 29.86122131 C-4.50537082 26.88547736 -4.00286137 23.91151761 -3.5 20.9375 C-3.16209814 18.90701114 -2.82485216 16.87641302 -2.48828125 14.84570312 C-1.6664293 9.89584027 -0.83565132 4.9475511 0 0 Z " fill="#AFAFAF" transform="translate(204,224)"/>
<path d="M0 0 C1.91015625 0.23046875 1.91015625 0.23046875 3.91015625 2.23046875 C4.72873024 5.70472172 4.80442102 8.76982284 3.91015625 12.23046875 C1.26542938 14.94437359 -1.63598677 16.69680662 -5.08984375 18.23046875 C-5.74984375 18.23046875 -6.40984375 18.23046875 -7.08984375 18.23046875 C-7.11668687 15.41790594 -7.13660563 12.60559634 -7.15234375 9.79296875 C-7.16072266 8.99052734 -7.16910156 8.18808594 -7.17773438 7.36132812 C-7.18635805 5.31751654 -7.14212525 3.27362973 -7.08984375 1.23046875 C-5.19495423 -0.66442077 -2.51845229 0.05027763 0 0 Z " fill="#F9FBFB" transform="translate(163.08984375,16.76953125)"/>
<path d="M0 0 C4.51486159 1.10568039 7.56911033 3.77086566 11.0625 6.75 C10.4025 8.07 9.7425 9.39 9.0625 10.75 C3.1225 10.75 -2.8175 10.75 -8.9375 10.75 C-9.2675 9.43 -9.5975 8.11 -9.9375 6.75 C-4.23504601 1.08128834 -4.23504601 1.08128834 0 0 Z " fill="#F3F3F3" transform="translate(160.9375,95.25)"/>
<path d="M0 0 C2.75383923 1.37691962 3.51483101 3.36720042 5 6 C6.32 5.67 7.64 5.34 9 5 C9 7.97 9 10.94 9 14 C9.99 14.33 10.98 14.66 12 15 C10.50260417 16.43229167 9.00520833 17.86458333 7.5078125 19.296875 C5.91885544 21.09165551 4.97600371 22.82057423 4 25 C1.22099564 16.50170541 -0.65895285 8.96908052 0 0 Z " fill="#3A3E46" transform="translate(208,53)"/>
<path d="M0 0 C0.33 0 0.66 0 1 0 C1.32098157 8.35740901 1.21819111 15.22270481 -2 23 C-2.556875 22.29875 -3.11375 21.5975 -3.6875 20.875 C-6.09124732 17.88655739 -8.53810432 14.94059762 -11 12 C-9.68 12 -8.36 12 -7 12 C-7 9.36 -7 6.72 -7 4 C-6.34 4 -5.68 4 -5 4 C-5 4.66 -5 5.32 -5 6 C-2.12579877 3.28395285 -2.12579877 3.28395285 0 0 Z " fill="#3A3D45" transform="translate(114,54)"/>
<path d="M0 0 C0.33 0 0.66 0 1 0 C1 7.92 1 15.84 1 24 C1.66 24 2.32 24 3 24 C3.19335938 24.83144531 3.38671875 25.66289062 3.5859375 26.51953125 C3.84632813 27.60621094 4.10671875 28.69289063 4.375 29.8125 C4.63023437 30.89144531 4.88546875 31.97039062 5.1484375 33.08203125 C5.88732881 36.15533343 5.88732881 36.15533343 8 39 C8 40.32 8 41.64 8 43 C13.61 43 19.22 43 25 43 C25 43.33 25 43.66 25 44 C21.72933434 44.08706892 18.45896635 44.14041241 15.1875 44.1875 C13.7943457 44.22520508 13.7943457 44.22520508 12.37304688 44.26367188 C11.0340332 44.27817383 11.0340332 44.27817383 9.66796875 44.29296875 C8.84578857 44.3086792 8.0236084 44.32438965 7.17651367 44.34057617 C4.46676893 43.91656115 3.6434649 43.15876456 2 41 C-2.16462937 28.5061119 -0.0986338 12.98172599 0 0 Z " fill="#43464C" transform="translate(176,257)"/>
<path d="M0 0 C1.24096402 3.55519423 0.75495011 5.91370745 -0.25 9.5 C-0.50265625 10.4384375 -0.7553125 11.376875 -1.015625 12.34375 C-2.00959117 15.02588093 -3.24892993 16.76702781 -5 19 C-5.71433121 21.64934822 -5.71433121 21.64934822 -6 24 C-8.37590142 20.29583874 -8.20500286 17.07015427 -8.125 12.75 C-8.10695312 11.48671875 -8.08890625 10.2234375 -8.0703125 8.921875 C-8.03550781 7.47554688 -8.03550781 7.47554688 -8 6 C-7.21238281 5.71382813 -6.42476562 5.42765625 -5.61328125 5.1328125 C-2.68834486 3.86490286 -1.68028142 2.65307593 0 0 Z " fill="#373A42" transform="translate(192,72)"/>
<path d="M0 0 C0.99 0.33 1.98 0.66 3 1 C1.7934375 2.11375 1.7934375 2.11375 0.5625 3.25 C-1.8960161 5.88840752 -2.3818647 6.67485839 -3 10 C-0.04160645 10.02689449 2.91654427 10.04678741 5.875 10.0625 C6.71675781 10.07087891 7.55851562 10.07925781 8.42578125 10.08789062 C9.23144531 10.09111328 10.03710938 10.09433594 10.8671875 10.09765625 C11.61081543 10.10289307 12.35444336 10.10812988 13.12060547 10.11352539 C15.09132568 10.11786636 15.09132568 10.11786636 17 9 C16.67 9.99 16.34 10.98 16 12 C12.72918529 12.02902429 9.4584037 12.04680684 6.1875 12.0625 C5.25873047 12.07087891 4.32996094 12.07925781 3.37304688 12.08789062 C2.48037109 12.09111328 1.58769531 12.09433594 0.66796875 12.09765625 C-0.15421143 12.10289307 -0.9763916 12.10812988 -1.82348633 12.11352539 C-4 12 -4 12 -7 11 C-7.804375 10.938125 -8.60875 10.87625 -9.4375 10.8125 C-13.14930692 9.63558561 -14.11714667 7.27755949 -16 4 C-15.01 3.67 -14.02 3.34 -13 3 C-12.01 4.485 -12.01 4.485 -11 6 C-5.64037108 5.70671668 -5.64037108 5.70671668 -1.5625 2.4375 C-1.046875 1.633125 -0.53125 0.82875 0 0 Z " fill="#2E2E2E" transform="translate(155,95)"/>
<path d="M0 0 C2.475 0.495 2.475 0.495 5 1 C5.77676688 5.07802614 6 8.85919974 6 13 C6.291224 14.67453799 6.61070799 16.34550895 7 18 C4.13275314 17.42655063 3.1385485 17.1385485 1 15 C0.83984375 12.79296875 0.83984375 12.79296875 0.9375 10.1875 C1.0147902 6.62699815 0.92484953 3.46818572 0 0 Z " fill="#5D626C" transform="translate(136,148)"/>
<path d="M0 0 C0.598125 0.20625 1.19625 0.4125 1.8125 0.625 C1.28981534 3.38776177 0.70380413 5.9510876 -0.1875 8.625 C-0.22704234 10.95799825 -0.23151732 13.29208189 -0.1875 15.625 C-1.5075 15.955 -2.8275 16.285 -4.1875 16.625 C-5.31448413 12.11706349 -5.31448413 12.11706349 -4.6875 9.6875 C-3.99448679 6.82882052 -4.60477042 4.47390017 -5.1875 1.625 C-2.1875 -0.375 -2.1875 -0.375 0 0 Z " fill="#60656F" transform="translate(187.1875,164.375)"/>
<path d="M0 0 C0.33 0 0.66 0 1 0 C1.08150744 2.06183633 1.1394194 4.12461349 1.1875 6.1875 C1.23970703 7.91033203 1.23970703 7.91033203 1.29296875 9.66796875 C0.9490805 13.57912447 -0.2059851 16.2059851 -3 19 C-4.56172745 19.08685603 -6.12729344 19.10702219 -7.69140625 19.09765625 C-8.63564453 19.09443359 -9.57988281 19.09121094 -10.55273438 19.08789062 C-12.04256836 19.07532227 -12.04256836 19.07532227 -13.5625 19.0625 C-14.55958984 19.05798828 -15.55667969 19.05347656 -16.58398438 19.04882812 C-19.05604849 19.03700007 -21.52799518 19.02051849 -24 19 C-24 18.67 -24 18.34 -24 18 C-22.81921875 17.99742187 -21.6384375 17.99484375 -20.421875 17.9921875 C-18.86454555 17.95466149 -17.30725458 17.91551394 -15.75 17.875 C-14.58404297 17.87886719 -14.58404297 17.87886719 -13.39453125 17.8828125 C-11.12380282 17.80518076 -9.18057598 17.64373091 -7 17 C-3.73788657 13.40331083 -2.38900692 9.79492839 -1.25 5.125 C-1.00765625 4.15820312 -0.7653125 3.19140625 -0.515625 2.1953125 C-0.34546875 1.47085937 -0.1753125 0.74640625 0 0 Z " fill="#3E4149" transform="translate(144,282)"/>
<path d="M0 0 C0.33 0 0.66 0 1 0 C1.18451025 10.55808656 1.18451025 10.55808656 0 15 C0.66 14.67 1.32 14.34 2 14 C8.95156695 13.43019943 8.95156695 13.43019943 12.875 15.5625 C15.53662642 18.61554207 16.34883026 21.02062935 17 25 C16.34 25.99 15.68 26.98 15 28 C14.54427083 26.01432292 14.08854167 24.02864583 13.6328125 22.04296875 C13.01992277 19.72257026 13.01992277 19.72257026 11 17 C8.66695078 16.59736309 8.66695078 16.59736309 6.0625 16.75 C4.74958984 16.77320313 4.74958984 16.77320313 3.41015625 16.796875 C0.85724575 16.91678518 0.85724575 16.91678518 -2 18 C-2.23268915 11.71739294 -1.40454548 6.11980533 0 0 Z " fill="#16171A" transform="translate(195,273)"/>
<path d="M0 0 C0.33 0 0.66 0 1 0 C2.17293889 6.3778552 3.29530838 12.50321562 3 19 C2.15115234 18.76410156 2.15115234 18.76410156 1.28515625 18.5234375 C-2.49271962 17.6580779 -6.1625532 17.35921192 -10 18 C-13.03381293 21.22342624 -13.49810434 24.68369734 -14 29 C-14.33 29 -14.66 29 -15 29 C-15.49029622 21.76813075 -15.49029622 21.76813075 -13.125 18.0625 C-10.29751141 15.31817284 -9.56913044 15.02069565 -5.5625 14.875 C-2 15 -2 15 1 16 C0.67 15.01 0.34 14.02 0 13 C-0.06937062 10.77181559 -0.08457084 8.54165476 -0.0625 6.3125 C-0.05347656 5.13300781 -0.04445313 3.95351563 -0.03515625 2.73828125 C-0.02355469 1.83464844 -0.01195313 0.93101562 0 0 Z " fill="#151619" transform="translate(126,272)"/>
<path d="M0 0 C1.97274111 1.85416104 3.39154712 3.79412176 5 6 C4.01 6 3.02 6 2 6 C2 5.34 2 4.68 2 4 C1.34 4 0.68 4 0 4 C0 5.32 0 6.64 0 8 C-1.65 8 -3.3 8 -5 8 C-5.33 6.35 -5.66 4.7 -6 3 C-6.66 3 -7.32 3 -8 3 C-7.67 4.98 -7.34 6.96 -7 9 C-7.66 8.67 -8.32 8.34 -9 8 C-9 6.02 -9 4.04 -9 2 C-5.87664697 0.14912413 -3.61522873 -0.70541048 0 0 Z " fill="#0F0F10" transform="translate(185,41)"/>
<path d="M0 0 C2.5245746 1.08196054 4.00576142 2.00633756 5.875 4.0625 C8.52539454 6.4790362 10.48662462 6.68060224 14 7 C14.33 5.68 14.66 4.36 15 3 C15.99 3 16.98 3 18 3 C15.89285714 8.99725275 15.89285714 8.99725275 13 11 C9.06815351 10.61027953 6.71580828 8.39599897 3.75 5.9375 C2.85796875 5.20402344 1.9659375 4.47054687 1.046875 3.71484375 C0.37140625 3.14894531 -0.3040625 2.58304687 -1 2 C-0.67 1.34 -0.34 0.68 0 0 Z " fill="#111111" transform="translate(165,95)"/>
<path d="M0 0 C0.33 0 0.66 0 1 0 C1 3.63 1 7.26 1 11 C0.34 11 -0.32 11 -1 11 C-0.67 11.99 -0.34 12.98 0 14 C-0.66 14 -1.32 14 -2 14 C-1.9175 14.9075 -1.835 15.815 -1.75 16.75 C-1.70300503 22.44813997 -4.0595849 27.72449644 -6 33 C-6.66 32.34 -7.32 31.68 -8 31 C-7.53722656 29.85789062 -7.07445312 28.71578125 -6.59765625 27.5390625 C-4.97116663 23.20112012 -4.13160249 18.94211223 -3.4375 14.375 C-2.66142104 9.39035572 -1.7499478 4.76166054 0 0 Z " fill="#4F545E" transform="translate(138,86)"/>
<path d="M0 0 C5.40435777 4.09985762 6.50075845 10.46690593 7.40625 16.875 C7.64910366 19.24956909 7.85301025 21.61775233 8 24 C7.67 24 7.34 24 7 24 C6.67 22.35 6.34 20.7 6 19 C5.67 21.31 5.34 23.62 5 26 C4.67 26 4.34 26 4 26 C3.96261719 24.87722656 3.92523438 23.75445312 3.88671875 22.59765625 C3.55630226 14.57363952 3.13750826 7.50273713 0 0 Z " fill="#3B3E46" transform="translate(191,32)"/>
<path d="M0 0 C4 2 4 2 5 4 C4.9129796 5.71233688 4.75902838 7.42175406 4.5625 9.125 C4.46066406 10.03507812 4.35882813 10.94515625 4.25390625 11.8828125 C4.17011719 12.58148438 4.08632812 13.28015625 4 14 C3.01 14 2.02 14 1 14 C0.67 9.38 0.34 4.76 0 0 Z " fill="#444851" transform="translate(220,284)"/>
<path d="M0 0 C0.33 0.66 0.66 1.32 1 2 C-0.2065625 2.4021875 -0.2065625 2.4021875 -1.4375 2.8125 C-2.283125 3.204375 -3.12875 3.59625 -4 4 C-4.33 4.99 -4.66 5.98 -5 7 C-7.0625 7.6875 -7.0625 7.6875 -9 8 C-9.33 9.32 -9.66 10.64 -10 12 C-10 8.66666667 -10 5.33333333 -10 2 C-6.49223216 0.39644899 -3.85645121 -0.22036864 0 0 Z " fill="#34373D" transform="translate(185,35)"/>
<path d="M0 0 C0.33 0.99 0.66 1.98 1 3 C-0.05914402 4.08661461 -1.12250989 5.16911452 -2.1875 6.25 C-2.82300781 6.89582031 -3.45851562 7.54164062 -4.11328125 8.20703125 C-6 10 -6 10 -8.875 11.9375 C-12.0529046 15.02193682 -11.78262087 17.65241735 -12 22 C-12.33 22 -12.66 22 -13 22 C-13.83988951 18.41491608 -13.95955784 15.57352576 -13 12 C-9.7219869 7.66238536 -5.23648276 4.3490703 -1 1 C-0.67 0.67 -0.34 0.34 0 0 Z " fill="#2BBEC0" transform="translate(180,16)"/>
<path d="M0 0 C0.99 0 1.98 0 3 0 C3.28571429 7.42857143 3.28571429 7.42857143 1 11 C0.34 11 -0.32 11 -1 11 C-2.50662097 7.98675805 -2.17770373 5.31713623 -2 2 C-1.34 1.34 -0.68 0.68 0 0 Z " fill="#E9EAEB" transform="translate(125,156)"/>
<path d="M0 0 C13.87936259 -0.5559982 13.87936259 -0.5559982 19 3 C20 4 20 4 20.0625 6.5625 C20.041875 7.366875 20.02125 8.17125 20 9 C17.10144578 7.70064811 15.14336722 6.33821878 13 4 C10.41073669 1.41073669 8.97294721 1.62601957 5.375 1.375 C3.87066406 1.26285156 3.87066406 1.26285156 2.3359375 1.1484375 C1.56507813 1.09945312 0.79421875 1.05046875 0 1 C0 0.67 0 0.34 0 0 Z " fill="#646464" transform="translate(154,66)"/>
<path d="M0 0 C0.99 0.33 1.98 0.66 3 1 C2.38461538 8.50769231 2.38461538 8.50769231 0.4375 11 C-0.036875 11.33 -0.51125 11.66 -1 12 C-2.11445498 9.77109005 -2.16480286 8.46944894 -2.1875 6 C-2.20167969 5.29875 -2.21585938 4.5975 -2.23046875 3.875 C-2 2 -2 2 0 0 Z " fill="#ECECEE" transform="translate(200,162)"/>
<path d="M0 0 C2.375 0.3125 2.375 0.3125 5 1 C7.498212 4.747318 7.13836174 6.35069706 6.54296875 10.64453125 C5.51170858 15.1182714 3.72661431 18.8968853 -0.25 21.4375 C-0.8275 21.623125 -1.405 21.80875 -2 22 C-1.65066406 21.54109375 -1.30132812 21.0821875 -0.94140625 20.609375 C-0.48636719 19.99578125 -0.03132812 19.3821875 0.4375 18.75 C0.88996094 18.14671875 1.34242188 17.5434375 1.80859375 16.921875 C4.31557245 12.87783066 4.41754325 8.67648444 4 4 C2.14579161 1.55901182 2.14579161 1.55901182 0 0 Z " fill="#B3EDED" transform="translate(149,33)"/>
<path d="M0 0 C0.33 0 0.66 0 1 0 C1.10957031 0.68964844 1.21914062 1.37929687 1.33203125 2.08984375 C2.37883269 8.29405716 3.81465677 14.09957328 6 20 C5.01 20 4.02 20 3 20 C-0.65111665 13.45841601 -0.29887594 7.36120371 0 0 Z " fill="#4E545E" transform="translate(186,98)"/>
<path d="M0 0 C0.66 0.33 1.32 0.66 2 1 C0.30742769 7.68120649 -1.77426886 11.47103301 -7 16 C-7.99 15.67 -8.98 15.34 -10 15 C-10 14.34 -10 13.68 -10 13 C-9.2575 12.814375 -8.515 12.62875 -7.75 12.4375 C-3.96140589 10.45709853 -2.70335248 7.82402632 -1 4 C-0.23959428 1.73014106 -0.23959428 1.73014106 0 0 Z " fill="#40CFCF" transform="translate(155,42)"/>
<path d="M0 0 C0.33 0 0.66 0 1 0 C2.6277833 6.14778871 3.20190089 11.64012196 3 18 C2.67 18 2.34 18 2 18 C2 16.35 2 14.7 2 13 C1.34 13 0.68 13 0 13 C0 12.34 0 11.68 0 11 C-0.66 10.67 -1.32 10.34 -2 10 C-1.34 10 -0.68 10 0 10 C0 6.7 0 3.4 0 0 Z " fill="#676B74" transform="translate(183,87)"/>
<path d="M0 0 C0.66 0 1.32 0 2 0 C2.33 1.65 2.66 3.3 3 5 C4.65 5 6.3 5 8 5 C8 3.68 8 2.36 8 1 C8.66 1 9.32 1 10 1 C9.67 2.65 9.34 4.3 9 6 C6.1875 6.6875 6.1875 6.6875 3 7 C1.125 5.8125 1.125 5.8125 0 4 C0 2.68 0 1.36 0 0 Z " fill="#D3D3D3" transform="translate(177,44)"/>
<path d="M0 0 C2.52490791 1.08210339 4.03546037 2.03774814 5.9375 4.0625 C8.30839468 6.28970409 9.81664932 6.64629437 13 7 C9.25 9 9.25 9 7 9 C5.29006566 7.3777546 3.62652316 5.70586575 2 4 C1.401875 3.401875 0.80375 2.80375 0.1875 2.1875 C-0.204375 1.795625 -0.59625 1.40375 -1 1 C-0.67 0.67 -0.34 0.34 0 0 Z " fill="#383838" transform="translate(165,95)"/>
<path d="M0 0 C0.99 0.66 1.98 1.32 3 2 C2.67 3.65 2.34 5.3 2 7 C0.68 6.67 -0.64 6.34 -2 6 C-1.125 1.125 -1.125 1.125 0 0 Z " fill="#686D76" transform="translate(188,226)"/>
<path d="M0 0 C1.98 0.495 1.98 0.495 4 1 C3.67 2.65 3.34 4.3 3 6 C1.68 5.67 0.36 5.34 -1 5 C-0.67 3.35 -0.34 1.7 0 0 Z " fill="#666B75" transform="translate(101,223)"/>
<path d="M0 0 C0.99 0.66 1.98 1.32 3 2 C2.67 3.65 2.34 5.3 2 7 C0.68 6.67 -0.64 6.34 -2 6 C-1.125 1.125 -1.125 1.125 0 0 Z " fill="#666A74" transform="translate(216,215)"/>
<path d="M0 0 C0.33 0 0.66 0 1 0 C1.66 4.62 2.32 9.24 3 14 C2.01 14.66 1.02 15.32 0 16 C0 10.72 0 5.44 0 0 Z " fill="#C6C6C7" transform="translate(177,265)"/>
<path d="M0 0 C0.99 0.66 1.98 1.32 3 2 C2.67 3.65 2.34 5.3 2 7 C0.68 6.34 -0.64 5.68 -2 5 C-1.125 1.125 -1.125 1.125 0 0 Z " fill="#636872" transform="translate(132,216)"/>
<path d="M0 0 C-1.17744585 3.53233755 -1.95605641 3.86308075 -5.0625 5.6875 C-5.79597656 6.12449219 -6.52945313 6.56148437 -7.28515625 7.01171875 C-7.85105469 7.33785156 -8.41695312 7.66398437 -9 8 C-9.66 7.34 -10.32 6.68 -11 6 C-9.54550599 4.9944239 -8.08627557 3.99569565 -6.625 3 C-5.40683594 2.1646875 -5.40683594 2.1646875 -4.1640625 1.3125 C-2 0 -2 0 0 0 Z " fill="#3ED2D2" transform="translate(167,29)"/>
<path d="M0 0 C1.32 0 2.64 0 4 0 C3.67 1.65 3.34 3.3 3 5 C1.68 5 0.36 5 -1 5 C-0.67 3.35 -0.34 1.7 0 0 Z " fill="#E6E6E8" transform="translate(88,231)"/>
<path d="M0 0 C1.32 0 2.64 0 4 0 C3.67 1.65 3.34 3.3 3 5 C1.68 4.67 0.36 4.34 -1 4 C-0.67 2.68 -0.34 1.36 0 0 Z " fill="#EDEEEF" transform="translate(229,232)"/>
<path d="M0 0 C0.99 0 1.98 0 3 0 C3 1.98 3 3.96 3 6 C1.68 5.67 0.36 5.34 -1 5 C-0.67 3.35 -0.34 1.7 0 0 Z " fill="#5B606A" transform="translate(190,182)"/>
<path d="M0 0 C2.475 0.495 2.475 0.495 5 1 C4.34 2.98 3.68 4.96 3 7 C1.5 5.75 1.5 5.75 0 4 C0 2.68 0 1.36 0 0 Z " fill="#646872" transform="translate(136,148)"/>
<path d="M0 0 C0.66 0.33 1.32 0.66 2 1 C1.34 2.32 0.68 3.64 0 5 C-0.66 5 -1.32 5 -2 5 C-2.33 7.64 -2.66 10.28 -3 13 C-3.33 13 -3.66 13 -4 13 C-4.63019694 4.80743982 -4.63019694 4.80743982 -2 1.4375 C-1.34 0.963125 -0.68 0.48875 0 0 Z " fill="#464A53" transform="translate(98,283)"/>
<path d="M0 0 C1.98 0.495 1.98 0.495 4 1 C3.67 2.32 3.34 3.64 3 5 C1.68 4.67 0.36 4.34 -1 4 C-0.67 2.68 -0.34 1.36 0 0 Z " fill="#696E78" transform="translate(104,237)"/>
<path d="M0 0 C4.29 0 8.58 0 13 0 C13 0.33 13 0.66 13 1 C12.32453125 1.03738281 11.6490625 1.07476562 10.953125 1.11328125 C10.06109375 1.17902344 9.1690625 1.24476563 8.25 1.3125 C7.36828125 1.37050781 6.4865625 1.42851562 5.578125 1.48828125 C2.67696226 2.0641181 1.20774393 3.07596148 -1 5 C-0.67 3.35 -0.34 1.7 0 0 Z " fill="#5D626D" transform="translate(90,205)"/>
<path d="M0 0 C0.33 0.99 0.66 1.98 1 3 C-2.00617269 6.00617269 -4.82381598 5.59585316 -9 6 C-6.11964908 3.75972706 -3.15133488 1.83827868 0 0 Z " fill="#E5F8F8" transform="translate(194,132)"/>
<path d="M0 0 C0.99 0.33 1.98 0.66 3 1 C2 5 2 5 1 9 C0.01 8.67 -0.98 8.34 -2 8 C-1.34 5.36 -0.68 2.72 0 0 Z " fill="#676B75" transform="translate(183,113)"/>
<path d="M0 0 C0.66 0.33 1.32 0.66 2 1 C1.0409375 1.7425 1.0409375 1.7425 0.0625 2.5 C-2.81515269 5.98806387 -2.70230736 8.53461041 -3 13 C-3.33 13 -3.66 13 -4 13 C-4.10824843 11.3973218 -4.18570645 9.79254252 -4.25 8.1875 C-4.29640625 7.29417969 -4.3428125 6.40085937 -4.390625 5.48046875 C-4 3 -4 3 -1.984375 1.17578125 C-1.00210938 0.59376953 -1.00210938 0.59376953 0 0 Z " fill="#52B7BA" transform="translate(171,25)"/>
<path d="M0 0 C0.33 0 0.66 0 1 0 C1 2.97 1 5.94 1 9 C0.01 9 -0.98 9 -2 9 C-1.125 1.125 -1.125 1.125 0 0 Z " fill="#565B66" transform="translate(223,289)"/>
<path d="M0 0 C0.99 0.33 1.98 0.66 3 1 C2.34 2.32 1.68 3.64 1 5 C-0.32 5 -1.64 5 -3 5 C-1.125 1.125 -1.125 1.125 0 0 Z " fill="#636771" transform="translate(192,237)"/>
<path d="M0 0 C0.99 0.33 1.98 0.66 3 1 C2.67 2.65 2.34 4.3 2 6 C1.01 5.67 0.02 5.34 -1 5 C-0.67 3.35 -0.34 1.7 0 0 Z " fill="#535863" transform="translate(134,172)"/>
<path d="M0 0 C1.10844919 3.32534757 0.84454356 5.62182575 0 9 C-0.66 9 -1.32 9 -2 9 C-2.25 3.375 -2.25 3.375 0 0 Z " fill="#575C67" transform="translate(118,292)"/>
<path d="M0 0 C1.65 0 3.3 0 5 0 C4.67 1.32 4.34 2.64 4 4 C2.68 3.67 1.36 3.34 0 3 C0 2.01 0 1.02 0 0 Z " fill="#616570" transform="translate(217,235)"/>
<path d="M0 0 C0.33 0.66 0.66 1.32 1 2 C1.99 2.33 2.98 2.66 4 3 C4 3.33 4 3.66 4 4 C1.36 4 -1.28 4 -4 4 C-4 3.34 -4 2.68 -4 2 C-2.68 1.34 -1.36 0.68 0 0 Z " fill="#101010" transform="translate(161,92)"/>
<path d="M0 0 C0.99 0.99 1.98 1.98 3 3 C0.25 6.875 0.25 6.875 -2 8 C-1.125 1.125 -1.125 1.125 0 0 Z " fill="#2B383D" transform="translate(127,48)"/>
</svg>
